<mxfile host="Electron" modified="2023-07-31T20:23:57.022Z" agent="Mozilla/5.0 (Macintosh; Intel Mac OS X 10_15_7) AppleWebKit/537.36 (KHTML, like Gecko) draw.io/21.2.1 Chrome/112.0.5615.87 Electron/24.1.2 Safari/537.36" etag="l_94U04VfvSiRXM7VaqZ" version="21.2.1" type="device">
  <diagram id="vPZL6tvSWJEB9YnMRWZ9" name="Electronics_Master">
    <mxGraphModel dx="12640" dy="5160" grid="1" gridSize="10" guides="1" tooltips="1" connect="1" arrows="1" fold="1" page="0" pageScale="1" pageWidth="850" pageHeight="1100" math="0" shadow="0">
      <root>
        <mxCell id="0" />
        <mxCell id="1" parent="0" />
        <mxCell id="iG1PrlRBNc7e2a4FFbMn-8" value="" style="rounded=0;whiteSpace=wrap;html=1;fillColor=none;dashed=1;strokeWidth=7;" parent="1" vertex="1">
          <mxGeometry x="-1320" y="1430" width="1180" height="680" as="geometry" />
        </mxCell>
        <mxCell id="-iF8XsLZiEZ4lhxP4TqI-1" value="" style="rounded=0;whiteSpace=wrap;html=1;fillColor=none;dashed=1;strokeWidth=7;" parent="1" vertex="1">
          <mxGeometry x="-1400" y="2910" width="4800" height="2920" as="geometry" />
        </mxCell>
        <mxCell id="9Dte4MXfXeRgDscpDeYK-14" value="&lt;font style=&quot;font-size: 40px;&quot;&gt;Driver&lt;/font&gt;" style="rounded=0;whiteSpace=wrap;html=1;" parent="1" vertex="1">
          <mxGeometry x="510" y="5870" width="460" height="290" as="geometry" />
        </mxCell>
        <mxCell id="rMdRtb_ls1uPioY6ne74-12" value="" style="rounded=0;whiteSpace=wrap;html=1;dashed=1;strokeWidth=7;fillColor=none;" parent="1" vertex="1">
          <mxGeometry x="-2640" y="3010" width="820" height="1570" as="geometry" />
        </mxCell>
        <mxCell id="ERRgDx46lqSrJd5y8MAJ-1" value="" style="group" parent="1" vertex="1" connectable="0">
          <mxGeometry x="50" y="3620" width="780" height="960" as="geometry" />
        </mxCell>
        <mxCell id="ERRgDx46lqSrJd5y8MAJ-2" value="&lt;font style=&quot;&quot;&gt;&lt;span style=&quot;font-size: 40px;&quot;&gt;Fusebox A&lt;br&gt;&lt;/span&gt;&lt;font style=&quot;font-size: 30px;&quot;&gt;130 mm x 89 mm&lt;/font&gt;&lt;br&gt;&lt;/font&gt;" style="rounded=1;whiteSpace=wrap;html=1;rotation=90;horizontal=0;arcSize=5;strokeWidth=6;movable=1;resizable=1;rotatable=1;deletable=1;editable=1;locked=0;connectable=1;container=1;" parent="ERRgDx46lqSrJd5y8MAJ-1" vertex="1">
          <mxGeometry x="-37.26166754063975" y="270.2854320987654" width="817.2616675406397" height="592.9244444444444" as="geometry" />
        </mxCell>
        <mxCell id="HUb-4d5OrKzfbSTe2eDc-24" value="&lt;font color=&quot;#f0021a&quot;&gt;PB 7+&lt;/font&gt;" style="rounded=1;whiteSpace=wrap;html=1;" parent="ERRgDx46lqSrJd5y8MAJ-2" vertex="1">
          <mxGeometry x="577.2616675406398" y="219.71456790123477" width="95" height="40" as="geometry" />
        </mxCell>
        <mxCell id="HUb-4d5OrKzfbSTe2eDc-23" value="&lt;font color=&quot;#f0021a&quot;&gt;PB&amp;nbsp; 6+&lt;/font&gt;" style="rounded=1;whiteSpace=wrap;html=1;" parent="ERRgDx46lqSrJd5y8MAJ-2" vertex="1">
          <mxGeometry x="577.2616675406398" y="149.71456790123477" width="95" height="40" as="geometry" />
        </mxCell>
        <mxCell id="HUb-4d5OrKzfbSTe2eDc-25" value="&lt;font color=&quot;#f0021a&quot;&gt;PB 8+&lt;/font&gt;" style="rounded=1;whiteSpace=wrap;html=1;" parent="ERRgDx46lqSrJd5y8MAJ-2" vertex="1">
          <mxGeometry x="577.2616675406398" y="289.7145679012348" width="95" height="40" as="geometry" />
        </mxCell>
        <mxCell id="HUb-4d5OrKzfbSTe2eDc-26" value="&lt;font color=&quot;#f0021a&quot;&gt;PB 9+&lt;/font&gt;" style="rounded=1;whiteSpace=wrap;html=1;" parent="ERRgDx46lqSrJd5y8MAJ-2" vertex="1">
          <mxGeometry x="577.2616675406398" y="354.7145679012348" width="95" height="40" as="geometry" />
        </mxCell>
        <mxCell id="HUb-4d5OrKzfbSTe2eDc-27" value="&lt;font color=&quot;#f0021a&quot;&gt;PB 10+&lt;/font&gt;" style="rounded=1;whiteSpace=wrap;html=1;" parent="ERRgDx46lqSrJd5y8MAJ-2" vertex="1">
          <mxGeometry x="577.2616675406398" y="419.7145679012348" width="95" height="40" as="geometry" />
        </mxCell>
        <mxCell id="HUb-4d5OrKzfbSTe2eDc-28" value="&lt;font color=&quot;#f0021a&quot;&gt;PB 11+&lt;/font&gt;" style="rounded=1;whiteSpace=wrap;html=1;" parent="ERRgDx46lqSrJd5y8MAJ-2" vertex="1">
          <mxGeometry x="577.2616675406398" y="489.7145679012348" width="95" height="40" as="geometry" />
        </mxCell>
        <mxCell id="HUb-4d5OrKzfbSTe2eDc-20" value="&lt;font color=&quot;#f0021a&quot;&gt;PB 5+&lt;/font&gt;" style="rounded=1;whiteSpace=wrap;html=1;" parent="ERRgDx46lqSrJd5y8MAJ-2" vertex="1">
          <mxGeometry x="137.26166754063973" y="489.7145679012348" width="95" height="40" as="geometry" />
        </mxCell>
        <mxCell id="HUb-4d5OrKzfbSTe2eDc-19" value="&lt;font color=&quot;#f0021a&quot;&gt;PB 4+&lt;/font&gt;" style="rounded=1;whiteSpace=wrap;html=1;" parent="ERRgDx46lqSrJd5y8MAJ-2" vertex="1">
          <mxGeometry x="137.26166754063973" y="419.7145679012348" width="95" height="40" as="geometry" />
        </mxCell>
        <mxCell id="HUb-4d5OrKzfbSTe2eDc-18" value="&lt;font color=&quot;#f0021a&quot;&gt;PB 3+&lt;/font&gt;" style="rounded=1;whiteSpace=wrap;html=1;" parent="ERRgDx46lqSrJd5y8MAJ-2" vertex="1">
          <mxGeometry x="137.26166754063973" y="354.7145679012348" width="95" height="40" as="geometry" />
        </mxCell>
        <mxCell id="HUb-4d5OrKzfbSTe2eDc-17" value="&lt;font color=&quot;#f0021a&quot;&gt;PB 2+&lt;/font&gt;" style="rounded=1;whiteSpace=wrap;html=1;" parent="ERRgDx46lqSrJd5y8MAJ-2" vertex="1">
          <mxGeometry x="137.26166754063973" y="289.7145679012348" width="95" height="40" as="geometry" />
        </mxCell>
        <mxCell id="HUb-4d5OrKzfbSTe2eDc-16" value="&lt;font color=&quot;#f0021a&quot;&gt;PB 1+&lt;/font&gt;" style="rounded=1;whiteSpace=wrap;html=1;" parent="ERRgDx46lqSrJd5y8MAJ-2" vertex="1">
          <mxGeometry x="137.26166754063973" y="219.71456790123477" width="95" height="40" as="geometry" />
        </mxCell>
        <mxCell id="HUb-4d5OrKzfbSTe2eDc-15" value="&lt;font color=&quot;#f0021a&quot;&gt;PB&amp;nbsp; 0+&lt;/font&gt;" style="rounded=1;whiteSpace=wrap;html=1;" parent="ERRgDx46lqSrJd5y8MAJ-2" vertex="1">
          <mxGeometry x="137.26166754063973" y="149.71456790123477" width="95" height="40" as="geometry" />
        </mxCell>
        <mxCell id="HUb-4d5OrKzfbSTe2eDc-22" value="DC&amp;nbsp; -" style="rounded=1;whiteSpace=wrap;html=1;" parent="ERRgDx46lqSrJd5y8MAJ-2" vertex="1">
          <mxGeometry x="361.13166754063974" y="-80.65543209876523" width="95" height="40" as="geometry" />
        </mxCell>
        <mxCell id="HUb-4d5OrKzfbSTe2eDc-21" value="DC&amp;nbsp; +" style="rounded=1;whiteSpace=wrap;html=1;" parent="ERRgDx46lqSrJd5y8MAJ-1" vertex="1">
          <mxGeometry x="323.87" y="840.0000000000001" width="95" height="40" as="geometry" />
        </mxCell>
        <mxCell id="x_RF12Wa5A5TPPIQ9e4U-21" value="" style="group" parent="1" vertex="1" connectable="0">
          <mxGeometry x="850" y="3750" width="610" height="750" as="geometry" />
        </mxCell>
        <mxCell id="x_RF12Wa5A5TPPIQ9e4U-22" value="&lt;font style=&quot;&quot;&gt;&lt;span style=&quot;font-size: 40px;&quot;&gt;Fusebox B&lt;br&gt;&lt;/span&gt;&lt;font style=&quot;font-size: 30px;&quot;&gt;89 mm x 89 mm&lt;/font&gt;&lt;br&gt;&lt;/font&gt;" style="rounded=1;whiteSpace=wrap;html=1;rotation=90;horizontal=0;arcSize=5;strokeWidth=6;movable=1;resizable=1;rotatable=1;deletable=1;editable=1;locked=0;connectable=1;container=1;" parent="x_RF12Wa5A5TPPIQ9e4U-21" vertex="1">
          <mxGeometry x="-29.140534871525954" y="211.16049382716048" width="639.1405348715259" height="463.22222222222223" as="geometry" />
        </mxCell>
        <mxCell id="WckYQV1ajARv2_VfDTGR-1" value="&lt;font color=&quot;#f0021a&quot;&gt;PB&amp;nbsp; 0+&lt;/font&gt;" style="rounded=1;whiteSpace=wrap;html=1;" parent="x_RF12Wa5A5TPPIQ9e4U-22" vertex="1">
          <mxGeometry x="101.26053487152598" y="164.83950617283972" width="95" height="40" as="geometry" />
        </mxCell>
        <mxCell id="WckYQV1ajARv2_VfDTGR-2" value="&lt;font color=&quot;#f0021a&quot;&gt;PB 1+&lt;/font&gt;" style="rounded=1;whiteSpace=wrap;html=1;" parent="x_RF12Wa5A5TPPIQ9e4U-22" vertex="1">
          <mxGeometry x="101.26053487152598" y="234.83950617283972" width="95" height="40" as="geometry" />
        </mxCell>
        <mxCell id="WckYQV1ajARv2_VfDTGR-3" value="&lt;font color=&quot;#f0021a&quot;&gt;PB 2+&lt;/font&gt;" style="rounded=1;whiteSpace=wrap;html=1;" parent="x_RF12Wa5A5TPPIQ9e4U-22" vertex="1">
          <mxGeometry x="101.26053487152598" y="304.8395061728397" width="95" height="40" as="geometry" />
        </mxCell>
        <mxCell id="WckYQV1ajARv2_VfDTGR-4" value="DC&amp;nbsp; +" style="rounded=1;whiteSpace=wrap;html=1;" parent="x_RF12Wa5A5TPPIQ9e4U-22" vertex="1">
          <mxGeometry x="272.070534871526" y="368.8395061728397" width="95" height="40" as="geometry" />
        </mxCell>
        <mxCell id="WckYQV1ajARv2_VfDTGR-5" value="DC&amp;nbsp; -" style="rounded=1;whiteSpace=wrap;html=1;" parent="x_RF12Wa5A5TPPIQ9e4U-22" vertex="1">
          <mxGeometry x="272.070534871526" y="-5.1604938271602805" width="95" height="40" as="geometry" />
        </mxCell>
        <mxCell id="WckYQV1ajARv2_VfDTGR-6" value="&lt;font color=&quot;#f0021a&quot;&gt;PB&amp;nbsp; 6+&lt;/font&gt;" style="rounded=1;whiteSpace=wrap;html=1;" parent="x_RF12Wa5A5TPPIQ9e4U-22" vertex="1">
          <mxGeometry x="439.140534871526" y="164.83950617283972" width="95" height="40" as="geometry" />
        </mxCell>
        <mxCell id="WckYQV1ajARv2_VfDTGR-7" value="&lt;font color=&quot;#f0021a&quot;&gt;PB 7+&lt;/font&gt;" style="rounded=1;whiteSpace=wrap;html=1;" parent="x_RF12Wa5A5TPPIQ9e4U-22" vertex="1">
          <mxGeometry x="439.140534871526" y="234.83950617283972" width="95" height="40" as="geometry" />
        </mxCell>
        <mxCell id="WckYQV1ajARv2_VfDTGR-8" value="&lt;font color=&quot;#f0021a&quot;&gt;PB 8+&lt;/font&gt;" style="rounded=1;whiteSpace=wrap;html=1;" parent="x_RF12Wa5A5TPPIQ9e4U-22" vertex="1">
          <mxGeometry x="439.140534871526" y="304.8395061728397" width="95" height="40" as="geometry" />
        </mxCell>
        <mxCell id="BEkewT1VqW6p_2pLXly9-1" value="" style="group;rotation=0;" parent="1" vertex="1" connectable="0">
          <mxGeometry x="2100" y="3022" width="880" height="598" as="geometry" />
        </mxCell>
        <mxCell id="BEkewT1VqW6p_2pLXly9-2" value="" style="group;rotation=0;" parent="BEkewT1VqW6p_2pLXly9-1" vertex="1" connectable="0">
          <mxGeometry width="880" height="598" as="geometry" />
        </mxCell>
        <mxCell id="BEkewT1VqW6p_2pLXly9-3" value="" style="rhombus;whiteSpace=wrap;html=1;strokeWidth=6;rounded=1;arcSize=50;rotation=0;" parent="BEkewT1VqW6p_2pLXly9-2" vertex="1">
          <mxGeometry y="14" width="880" height="570" as="geometry" />
        </mxCell>
        <mxCell id="BEkewT1VqW6p_2pLXly9-4" value="&lt;font style=&quot;font-size: 70px;&quot;&gt;&lt;br&gt;&lt;br&gt;&lt;br&gt;Array Contactor&lt;/font&gt;" style="ellipse;whiteSpace=wrap;html=1;aspect=fixed;strokeWidth=6;rotation=0;" parent="BEkewT1VqW6p_2pLXly9-2" vertex="1">
          <mxGeometry x="140" width="598" height="598" as="geometry" />
        </mxCell>
        <mxCell id="BEkewT1VqW6p_2pLXly9-7" value="" style="ellipse;whiteSpace=wrap;html=1;aspect=fixed;strokeWidth=15;rotation=0;" parent="BEkewT1VqW6p_2pLXly9-2" vertex="1">
          <mxGeometry x="230" y="241" width="100" height="100" as="geometry" />
        </mxCell>
        <mxCell id="BEkewT1VqW6p_2pLXly9-8" value="" style="ellipse;whiteSpace=wrap;html=1;aspect=fixed;strokeWidth=15;rotation=0;" parent="BEkewT1VqW6p_2pLXly9-2" vertex="1">
          <mxGeometry x="550" y="241" width="100" height="100" as="geometry" />
        </mxCell>
        <mxCell id="BEkewT1VqW6p_2pLXly9-9" value="" style="group;rotation=0;" parent="1" vertex="1" connectable="0">
          <mxGeometry x="2248.51" y="4130" width="880" height="598" as="geometry" />
        </mxCell>
        <mxCell id="BEkewT1VqW6p_2pLXly9-10" value="" style="group;rotation=0;" parent="BEkewT1VqW6p_2pLXly9-9" vertex="1" connectable="0">
          <mxGeometry width="880" height="598" as="geometry" />
        </mxCell>
        <mxCell id="BEkewT1VqW6p_2pLXly9-11" value="" style="rhombus;whiteSpace=wrap;html=1;strokeWidth=6;rounded=1;arcSize=50;rotation=0;" parent="BEkewT1VqW6p_2pLXly9-10" vertex="1">
          <mxGeometry x="-18.51" y="-146" width="880" height="570" as="geometry" />
        </mxCell>
        <mxCell id="BEkewT1VqW6p_2pLXly9-12" value="&lt;font style=&quot;font-size: 70px;&quot;&gt;&lt;br&gt;&lt;br&gt;&lt;br&gt;Motor Contactor&lt;/font&gt;" style="ellipse;whiteSpace=wrap;html=1;aspect=fixed;strokeWidth=6;rotation=0;" parent="BEkewT1VqW6p_2pLXly9-10" vertex="1">
          <mxGeometry x="121.49" y="-160" width="598" height="598" as="geometry" />
        </mxCell>
        <mxCell id="BEkewT1VqW6p_2pLXly9-13" value="" style="ellipse;whiteSpace=wrap;html=1;aspect=fixed;strokeWidth=15;rotation=0;" parent="BEkewT1VqW6p_2pLXly9-10" vertex="1">
          <mxGeometry x="211.49" y="81" width="100" height="100" as="geometry" />
        </mxCell>
        <mxCell id="5dPaA2qYznnAZKSeOZfX-11" style="edgeStyle=orthogonalEdgeStyle;rounded=0;orthogonalLoop=1;jettySize=auto;html=1;fillColor=#f8cecc;strokeColor=#FF0000;strokeWidth=20;" parent="BEkewT1VqW6p_2pLXly9-10" source="BEkewT1VqW6p_2pLXly9-14" edge="1">
          <mxGeometry relative="1" as="geometry">
            <mxPoint x="1601.4900000000007" y="131" as="targetPoint" />
          </mxGeometry>
        </mxCell>
        <mxCell id="5dPaA2qYznnAZKSeOZfX-12" value="&lt;font style=&quot;font-size: 50px;&quot;&gt;Motor Controller HV +&lt;/font&gt;" style="edgeLabel;html=1;align=center;verticalAlign=middle;resizable=0;points=[];" parent="5dPaA2qYznnAZKSeOZfX-11" vertex="1" connectable="0">
          <mxGeometry x="0.0332" y="-3" relative="1" as="geometry">
            <mxPoint x="-1" y="-4" as="offset" />
          </mxGeometry>
        </mxCell>
        <mxCell id="BEkewT1VqW6p_2pLXly9-14" value="" style="ellipse;whiteSpace=wrap;html=1;aspect=fixed;strokeWidth=15;rotation=0;" parent="BEkewT1VqW6p_2pLXly9-10" vertex="1">
          <mxGeometry x="531.49" y="81" width="100" height="100" as="geometry" />
        </mxCell>
        <mxCell id="J8Z-Zp-6a1qxDs6MHvO8-1" value="" style="group" parent="1" vertex="1" connectable="0">
          <mxGeometry x="1510" y="3410" width="300" height="277.9239545573679" as="geometry" />
        </mxCell>
        <mxCell id="J8Z-Zp-6a1qxDs6MHvO8-2" value="&lt;font style=&quot;&quot;&gt;&lt;font style=&quot;font-size: 40px;&quot;&gt;Array Contactor Driver&lt;br&gt;&lt;/font&gt;&lt;font style=&quot;font-size: 30px;&quot;&gt;60 mm x 94 mm&lt;/font&gt;&lt;br&gt;&lt;/font&gt;" style="rounded=1;whiteSpace=wrap;html=1;rotation=90;horizontal=0;arcSize=5;strokeWidth=6;movable=1;resizable=1;rotatable=1;deletable=1;editable=1;locked=0;connectable=1;container=1;" parent="J8Z-Zp-6a1qxDs6MHvO8-1" vertex="1">
          <mxGeometry x="-2.975714724869351" y="3.8539545573677954" width="302.97571472486936" height="274.0700000000001" as="geometry" />
        </mxCell>
        <mxCell id="CGdmq5htDPxT0Z3QTL7X-1" value="J2 Contactor" style="rounded=1;whiteSpace=wrap;html=1;" parent="J8Z-Zp-6a1qxDs6MHvO8-2" vertex="1">
          <mxGeometry x="211.32" y="6.149999999999999" width="58.41" height="37.92" as="geometry" />
        </mxCell>
        <mxCell id="gW2Hue4rhhFIJ8Cr2Drh-1" value="J3&lt;br&gt;Precharge" style="rounded=1;whiteSpace=wrap;html=1;" parent="J8Z-Zp-6a1qxDs6MHvO8-2" vertex="1">
          <mxGeometry x="211.3199999999997" y="66.15000000000009" width="58.41" height="37.92" as="geometry" />
        </mxCell>
        <mxCell id="gW2Hue4rhhFIJ8Cr2Drh-2" value="&lt;font color=&quot;#f0021a&quot;&gt;J1&lt;br&gt;Power&lt;br&gt;&lt;/font&gt;" style="rounded=1;whiteSpace=wrap;html=1;" parent="J8Z-Zp-6a1qxDs6MHvO8-2" vertex="1">
          <mxGeometry x="211.3199999999998" y="146.1500000000001" width="58.41" height="37.92" as="geometry" />
        </mxCell>
        <mxCell id="gW2Hue4rhhFIJ8Cr2Drh-3" value="J5" style="rounded=1;whiteSpace=wrap;html=1;" parent="J8Z-Zp-6a1qxDs6MHvO8-2" vertex="1">
          <mxGeometry x="32.97999999999979" y="146.1500000000001" width="58.41" height="37.92" as="geometry" />
        </mxCell>
        <mxCell id="gW2Hue4rhhFIJ8Cr2Drh-4" value="J3&lt;br&gt;Precharge" style="rounded=1;whiteSpace=wrap;html=1;" parent="J8Z-Zp-6a1qxDs6MHvO8-2" vertex="1">
          <mxGeometry x="32.97999999999979" y="56.15000000000009" width="58.41" height="37.92" as="geometry" />
        </mxCell>
        <mxCell id="HcQLRDQarkvEMtJrPasP-1" value="" style="group" parent="1" vertex="1" connectable="0">
          <mxGeometry x="2520" y="4620" width="300" height="277.09" as="geometry" />
        </mxCell>
        <mxCell id="HcQLRDQarkvEMtJrPasP-2" value="&lt;font style=&quot;&quot;&gt;&lt;font style=&quot;font-size: 40px;&quot;&gt;Motor Contactor Driver&lt;br&gt;&lt;/font&gt;&lt;font style=&quot;font-size: 30px;&quot;&gt;60 mm x 94 mm&lt;/font&gt;&lt;br&gt;&lt;/font&gt;" style="rounded=1;whiteSpace=wrap;html=1;rotation=90;horizontal=0;arcSize=5;strokeWidth=6;movable=1;resizable=1;rotatable=1;deletable=1;editable=1;locked=0;connectable=1;container=1;" parent="HcQLRDQarkvEMtJrPasP-1" vertex="1">
          <mxGeometry x="-2.975714724869351" y="3.842390160293335" width="302.97571472486936" height="273.2476098397067" as="geometry" />
        </mxCell>
        <mxCell id="HcQLRDQarkvEMtJrPasP-3" value="J2 Contactor" style="rounded=1;whiteSpace=wrap;html=1;" parent="HcQLRDQarkvEMtJrPasP-2" vertex="1">
          <mxGeometry x="211.32" y="6.131545957288996" width="58.41" height="37.80621507323558" as="geometry" />
        </mxCell>
        <mxCell id="HcQLRDQarkvEMtJrPasP-4" value="" style="ellipse;whiteSpace=wrap;html=1;strokeColor=default;fillStyle=solid;fillColor=#FF6666;strokeWidth=3;recursiveResize=0;resizable=1;editable=1;movable=1;rotatable=1;deletable=1;locked=0;connectable=1;aspect=fixed;" parent="HcQLRDQarkvEMtJrPasP-2" vertex="1">
          <mxGeometry x="262.9738179190012" y="-6.74019967732964" width="6.736515412754156" height="6.736515412754156" as="geometry" />
        </mxCell>
        <mxCell id="HcQLRDQarkvEMtJrPasP-5" value="" style="ellipse;whiteSpace=wrap;html=1;aspect=fixed;strokeColor=default;fillStyle=solid;fillColor=#FF6666;strokeWidth=3;recursiveResize=0;resizable=1;editable=1;movable=1;rotatable=1;deletable=1;locked=0;connectable=1;" parent="HcQLRDQarkvEMtJrPasP-2" vertex="1">
          <mxGeometry x="32.97772150510164" y="-6.74019967732964" width="6.736515412754156" height="6.736515412754156" as="geometry" />
        </mxCell>
        <mxCell id="HcQLRDQarkvEMtJrPasP-6" value="J3&lt;br&gt;Precharge" style="rounded=1;whiteSpace=wrap;html=1;" parent="HcQLRDQarkvEMtJrPasP-2" vertex="1">
          <mxGeometry x="211.3199999999997" y="65.95150651620614" width="58.41" height="37.80621507323558" as="geometry" />
        </mxCell>
        <mxCell id="HcQLRDQarkvEMtJrPasP-7" value="&lt;font color=&quot;#f0021a&quot;&gt;J1&lt;br&gt;Power&lt;br&gt;&lt;/font&gt;" style="rounded=1;whiteSpace=wrap;html=1;" parent="HcQLRDQarkvEMtJrPasP-2" vertex="1">
          <mxGeometry x="211.3199999999998" y="145.71145392809552" width="58.41" height="37.80621507323558" as="geometry" />
        </mxCell>
        <mxCell id="HcQLRDQarkvEMtJrPasP-8" value="J5" style="rounded=1;whiteSpace=wrap;html=1;" parent="HcQLRDQarkvEMtJrPasP-2" vertex="1">
          <mxGeometry x="32.97999999999979" y="145.71145392809552" width="58.41" height="37.80621507323558" as="geometry" />
        </mxCell>
        <mxCell id="HcQLRDQarkvEMtJrPasP-9" value="J3&lt;br&gt;Precharge" style="rounded=1;whiteSpace=wrap;html=1;" parent="HcQLRDQarkvEMtJrPasP-2" vertex="1">
          <mxGeometry x="32.97999999999979" y="55.98151308971996" width="58.41" height="37.80621507323558" as="geometry" />
        </mxCell>
        <mxCell id="HcQLRDQarkvEMtJrPasP-10" value="" style="ellipse;whiteSpace=wrap;html=1;aspect=fixed;strokeColor=default;fillStyle=solid;fillColor=#FF6666;strokeWidth=3;recursiveResize=0;resizable=1;editable=1;movable=1;rotatable=1;deletable=1;locked=0;connectable=1;" parent="HcQLRDQarkvEMtJrPasP-1" vertex="1">
          <mxGeometry x="260.0019734677256" y="253.76689442762108" width="6.736515412754155" height="6.736515412754155" as="geometry" />
        </mxCell>
        <mxCell id="HcQLRDQarkvEMtJrPasP-11" value="" style="ellipse;whiteSpace=wrap;html=1;aspect=fixed;strokeColor=default;fillStyle=solid;fillColor=#FF6666;strokeWidth=3;recursiveResize=0;resizable=1;editable=1;movable=1;rotatable=1;deletable=1;locked=0;connectable=1;" parent="HcQLRDQarkvEMtJrPasP-1" vertex="1">
          <mxGeometry x="29.99587705382605" y="253.76689442762108" width="6.736515412754155" height="6.736515412754155" as="geometry" />
        </mxCell>
        <mxCell id="vC42W1dHfUrLGCSOYuyR-17" value="" style="group" parent="1" vertex="1" connectable="0">
          <mxGeometry x="1500" y="3690" width="680" height="434.8499999999999" as="geometry" />
        </mxCell>
        <mxCell id="j2joTfzs02BF0UsiAHhk-1" value="" style="group" parent="vC42W1dHfUrLGCSOYuyR-17" vertex="1" connectable="0">
          <mxGeometry width="660" height="434.85" as="geometry" />
        </mxCell>
        <mxCell id="j2joTfzs02BF0UsiAHhk-2" value="&lt;font style=&quot;&quot;&gt;&lt;font style=&quot;font-size: 40px;&quot;&gt;MPPT A&lt;br&gt;&lt;/font&gt;&lt;font style=&quot;font-size: 30px;&quot;&gt;120 mm x 60 mm&lt;/font&gt;&lt;br&gt;&lt;/font&gt;" style="rounded=1;whiteSpace=wrap;html=1;rotation=90;horizontal=0;arcSize=5;strokeWidth=6;movable=1;resizable=1;rotatable=1;deletable=1;editable=1;locked=0;connectable=1;container=1;" parent="j2joTfzs02BF0UsiAHhk-1" vertex="1">
          <mxGeometry x="174.58585457791884" y="-119.99999999999997" width="376.51621862910423" height="695" as="geometry" />
        </mxCell>
        <mxCell id="vC42W1dHfUrLGCSOYuyR-1" value="" style="group;rotation=0;" parent="vC42W1dHfUrLGCSOYuyR-17" connectable="0" vertex="1">
          <mxGeometry x="70" y="180" width="120" height="90" as="geometry" />
        </mxCell>
        <mxCell id="vC42W1dHfUrLGCSOYuyR-2" value="&lt;font color=&quot;#2d7600&quot;&gt;J602&lt;/font&gt;" style="rounded=1;whiteSpace=wrap;html=1;rotation=0;" parent="vC42W1dHfUrLGCSOYuyR-1" vertex="1">
          <mxGeometry y="30" width="120" height="60" as="geometry" />
        </mxCell>
        <mxCell id="vC42W1dHfUrLGCSOYuyR-3" value="CAN_Out" style="text;html=1;strokeColor=none;fillColor=none;align=center;verticalAlign=middle;whiteSpace=wrap;rounded=0;rotation=0;" parent="vC42W1dHfUrLGCSOYuyR-1" vertex="1">
          <mxGeometry x="30" width="60" height="30" as="geometry" />
        </mxCell>
        <mxCell id="vC42W1dHfUrLGCSOYuyR-4" value="" style="group;rotation=0;" parent="vC42W1dHfUrLGCSOYuyR-17" connectable="0" vertex="1">
          <mxGeometry x="230" y="310" width="110" height="60" as="geometry" />
        </mxCell>
        <mxCell id="vC42W1dHfUrLGCSOYuyR-5" value="&lt;font color=&quot;#f0072e&quot;&gt;J201&lt;/font&gt;" style="rounded=1;whiteSpace=wrap;html=1;rotation=0;" parent="vC42W1dHfUrLGCSOYuyR-4" vertex="1">
          <mxGeometry y="20" width="110" height="40" as="geometry" />
        </mxCell>
        <mxCell id="vC42W1dHfUrLGCSOYuyR-6" value="Car 12V" style="text;html=1;strokeColor=none;fillColor=none;align=center;verticalAlign=middle;whiteSpace=wrap;rounded=0;rotation=0;" parent="vC42W1dHfUrLGCSOYuyR-4" vertex="1">
          <mxGeometry x="28" width="55" height="20" as="geometry" />
        </mxCell>
        <mxCell id="vC42W1dHfUrLGCSOYuyR-7" value="" style="group;rotation=0;" parent="vC42W1dHfUrLGCSOYuyR-17" connectable="0" vertex="1">
          <mxGeometry x="385" y="280" width="120" height="90" as="geometry" />
        </mxCell>
        <mxCell id="vC42W1dHfUrLGCSOYuyR-8" value="J402" style="rounded=1;whiteSpace=wrap;html=1;rotation=0;" parent="vC42W1dHfUrLGCSOYuyR-7" vertex="1">
          <mxGeometry y="30" width="120" height="60" as="geometry" />
        </mxCell>
        <mxCell id="vC42W1dHfUrLGCSOYuyR-9" value="Battery" style="text;html=1;strokeColor=none;fillColor=none;align=center;verticalAlign=middle;whiteSpace=wrap;rounded=0;rotation=0;" parent="vC42W1dHfUrLGCSOYuyR-7" vertex="1">
          <mxGeometry x="30" width="60" height="30" as="geometry" />
        </mxCell>
        <mxCell id="vC42W1dHfUrLGCSOYuyR-10" value="" style="group;rotation=0;" parent="vC42W1dHfUrLGCSOYuyR-17" connectable="0" vertex="1">
          <mxGeometry x="560" y="280" width="120" height="90" as="geometry" />
        </mxCell>
        <mxCell id="vC42W1dHfUrLGCSOYuyR-11" value="J401" style="rounded=1;whiteSpace=wrap;html=1;rotation=0;" parent="vC42W1dHfUrLGCSOYuyR-10" vertex="1">
          <mxGeometry y="30" width="120" height="60" as="geometry" />
        </mxCell>
        <mxCell id="vC42W1dHfUrLGCSOYuyR-12" value="Array" style="text;html=1;strokeColor=none;fillColor=none;align=center;verticalAlign=middle;whiteSpace=wrap;rounded=0;rotation=0;" parent="vC42W1dHfUrLGCSOYuyR-10" vertex="1">
          <mxGeometry x="30" width="60" height="30" as="geometry" />
        </mxCell>
        <mxCell id="vC42W1dHfUrLGCSOYuyR-13" value="" style="group;rotation=0;" parent="vC42W1dHfUrLGCSOYuyR-17" connectable="0" vertex="1">
          <mxGeometry x="70" y="280" width="120" height="90" as="geometry" />
        </mxCell>
        <mxCell id="vC42W1dHfUrLGCSOYuyR-14" value="&lt;font color=&quot;#2d7600&quot;&gt;J601&lt;/font&gt;" style="rounded=1;whiteSpace=wrap;html=1;rotation=0;" parent="vC42W1dHfUrLGCSOYuyR-13" vertex="1">
          <mxGeometry y="30" width="120" height="60" as="geometry" />
        </mxCell>
        <mxCell id="vC42W1dHfUrLGCSOYuyR-15" value="CAN_In" style="text;html=1;strokeColor=none;fillColor=none;align=center;verticalAlign=middle;whiteSpace=wrap;rounded=0;rotation=0;" parent="vC42W1dHfUrLGCSOYuyR-13" vertex="1">
          <mxGeometry x="30" width="60" height="30" as="geometry" />
        </mxCell>
        <mxCell id="vC42W1dHfUrLGCSOYuyR-18" value="" style="group" parent="1" vertex="1" connectable="0">
          <mxGeometry x="1498" y="4130" width="680" height="434.8499999999999" as="geometry" />
        </mxCell>
        <mxCell id="vC42W1dHfUrLGCSOYuyR-19" value="" style="group" parent="vC42W1dHfUrLGCSOYuyR-18" vertex="1" connectable="0">
          <mxGeometry width="660" height="434.85" as="geometry" />
        </mxCell>
        <mxCell id="vC42W1dHfUrLGCSOYuyR-20" value="&lt;font style=&quot;&quot;&gt;&lt;font style=&quot;font-size: 40px;&quot;&gt;MPPT B&lt;br&gt;&lt;/font&gt;&lt;font style=&quot;font-size: 30px;&quot;&gt;120 mm x 60 mm&lt;/font&gt;&lt;br&gt;&lt;/font&gt;" style="rounded=1;whiteSpace=wrap;html=1;rotation=90;horizontal=0;arcSize=5;strokeWidth=6;movable=1;resizable=1;rotatable=1;deletable=1;editable=1;locked=0;connectable=1;container=1;" parent="vC42W1dHfUrLGCSOYuyR-19" vertex="1">
          <mxGeometry x="174.58585457791884" y="-119.99999999999997" width="376.51621862910423" height="695" as="geometry" />
        </mxCell>
        <mxCell id="vC42W1dHfUrLGCSOYuyR-25" value="" style="group;rotation=0;" parent="vC42W1dHfUrLGCSOYuyR-18" connectable="0" vertex="1">
          <mxGeometry x="70" y="180" width="120" height="90" as="geometry" />
        </mxCell>
        <mxCell id="vC42W1dHfUrLGCSOYuyR-26" value="&lt;font color=&quot;#2d7600&quot;&gt;J602&lt;/font&gt;" style="rounded=1;whiteSpace=wrap;html=1;rotation=0;" parent="vC42W1dHfUrLGCSOYuyR-25" vertex="1">
          <mxGeometry y="30" width="120" height="60" as="geometry" />
        </mxCell>
        <mxCell id="vC42W1dHfUrLGCSOYuyR-27" value="CAN_Out" style="text;html=1;strokeColor=none;fillColor=none;align=center;verticalAlign=middle;whiteSpace=wrap;rounded=0;rotation=0;" parent="vC42W1dHfUrLGCSOYuyR-25" vertex="1">
          <mxGeometry x="30" width="60" height="30" as="geometry" />
        </mxCell>
        <mxCell id="vC42W1dHfUrLGCSOYuyR-28" value="" style="group;rotation=0;" parent="vC42W1dHfUrLGCSOYuyR-18" connectable="0" vertex="1">
          <mxGeometry x="230" y="310" width="110" height="60" as="geometry" />
        </mxCell>
        <mxCell id="vC42W1dHfUrLGCSOYuyR-29" value="&lt;font color=&quot;#f0072e&quot;&gt;J201&lt;/font&gt;" style="rounded=1;whiteSpace=wrap;html=1;rotation=0;" parent="vC42W1dHfUrLGCSOYuyR-28" vertex="1">
          <mxGeometry y="20" width="110" height="40" as="geometry" />
        </mxCell>
        <mxCell id="vC42W1dHfUrLGCSOYuyR-30" value="Car 12V" style="text;html=1;strokeColor=none;fillColor=none;align=center;verticalAlign=middle;whiteSpace=wrap;rounded=0;rotation=0;" parent="vC42W1dHfUrLGCSOYuyR-28" vertex="1">
          <mxGeometry x="28" width="55" height="20" as="geometry" />
        </mxCell>
        <mxCell id="vC42W1dHfUrLGCSOYuyR-31" value="" style="group;rotation=0;" parent="vC42W1dHfUrLGCSOYuyR-18" connectable="0" vertex="1">
          <mxGeometry x="385" y="280" width="120" height="90" as="geometry" />
        </mxCell>
        <mxCell id="vC42W1dHfUrLGCSOYuyR-32" value="J402" style="rounded=1;whiteSpace=wrap;html=1;rotation=0;" parent="vC42W1dHfUrLGCSOYuyR-31" vertex="1">
          <mxGeometry y="30" width="120" height="60" as="geometry" />
        </mxCell>
        <mxCell id="vC42W1dHfUrLGCSOYuyR-33" value="Battery" style="text;html=1;strokeColor=none;fillColor=none;align=center;verticalAlign=middle;whiteSpace=wrap;rounded=0;rotation=0;" parent="vC42W1dHfUrLGCSOYuyR-31" vertex="1">
          <mxGeometry x="30" width="60" height="30" as="geometry" />
        </mxCell>
        <mxCell id="vC42W1dHfUrLGCSOYuyR-34" value="" style="group;rotation=0;" parent="vC42W1dHfUrLGCSOYuyR-18" connectable="0" vertex="1">
          <mxGeometry x="560" y="280" width="120" height="90" as="geometry" />
        </mxCell>
        <mxCell id="vC42W1dHfUrLGCSOYuyR-35" value="J401" style="rounded=1;whiteSpace=wrap;html=1;rotation=0;" parent="vC42W1dHfUrLGCSOYuyR-34" vertex="1">
          <mxGeometry y="30" width="120" height="60" as="geometry" />
        </mxCell>
        <mxCell id="vC42W1dHfUrLGCSOYuyR-36" value="Array" style="text;html=1;strokeColor=none;fillColor=none;align=center;verticalAlign=middle;whiteSpace=wrap;rounded=0;rotation=0;" parent="vC42W1dHfUrLGCSOYuyR-34" vertex="1">
          <mxGeometry x="30" width="60" height="30" as="geometry" />
        </mxCell>
        <mxCell id="vC42W1dHfUrLGCSOYuyR-37" value="" style="group;rotation=0;" parent="vC42W1dHfUrLGCSOYuyR-18" connectable="0" vertex="1">
          <mxGeometry x="70" y="280" width="120" height="90" as="geometry" />
        </mxCell>
        <mxCell id="vC42W1dHfUrLGCSOYuyR-38" value="&lt;font color=&quot;#2d7600&quot;&gt;J601&lt;/font&gt;" style="rounded=1;whiteSpace=wrap;html=1;rotation=0;" parent="vC42W1dHfUrLGCSOYuyR-37" vertex="1">
          <mxGeometry y="30" width="120" height="60" as="geometry" />
        </mxCell>
        <mxCell id="vC42W1dHfUrLGCSOYuyR-39" value="CAN_In" style="text;html=1;strokeColor=none;fillColor=none;align=center;verticalAlign=middle;whiteSpace=wrap;rounded=0;rotation=0;" parent="vC42W1dHfUrLGCSOYuyR-37" vertex="1">
          <mxGeometry x="30" width="60" height="30" as="geometry" />
        </mxCell>
        <mxCell id="vC42W1dHfUrLGCSOYuyR-40" value="" style="group" parent="1" vertex="1" connectable="0">
          <mxGeometry x="1500" y="4550" width="680" height="434.8499999999999" as="geometry" />
        </mxCell>
        <mxCell id="vC42W1dHfUrLGCSOYuyR-41" value="" style="group" parent="vC42W1dHfUrLGCSOYuyR-40" vertex="1" connectable="0">
          <mxGeometry width="660" height="434.85" as="geometry" />
        </mxCell>
        <mxCell id="vC42W1dHfUrLGCSOYuyR-42" value="&lt;font style=&quot;&quot;&gt;&lt;font style=&quot;font-size: 40px;&quot;&gt;MPPT C&lt;br&gt;&lt;/font&gt;&lt;font style=&quot;font-size: 30px;&quot;&gt;120 mm x 60 mm&lt;/font&gt;&lt;br&gt;&lt;/font&gt;" style="rounded=1;whiteSpace=wrap;html=1;rotation=90;horizontal=0;arcSize=5;strokeWidth=6;movable=1;resizable=1;rotatable=1;deletable=1;editable=1;locked=0;connectable=1;container=1;" parent="vC42W1dHfUrLGCSOYuyR-41" vertex="1">
          <mxGeometry x="174.58585457791884" y="-119.99999999999997" width="376.51621862910423" height="695" as="geometry" />
        </mxCell>
        <mxCell id="vC42W1dHfUrLGCSOYuyR-43" value="" style="ellipse;whiteSpace=wrap;html=1;strokeColor=default;fillStyle=solid;fillColor=#FF6666;strokeWidth=3;recursiveResize=0;resizable=1;editable=1;movable=1;rotatable=1;deletable=1;locked=0;connectable=1;aspect=fixed;" parent="vC42W1dHfUrLGCSOYuyR-42" vertex="1">
          <mxGeometry x="508.147482884293" y="504.45953918307777" width="5.537723277892742" height="5.537723277892742" as="geometry" />
        </mxCell>
        <mxCell id="vC42W1dHfUrLGCSOYuyR-44" value="" style="ellipse;whiteSpace=wrap;html=1;aspect=fixed;strokeColor=default;fillStyle=solid;fillColor=#FF6666;strokeWidth=3;recursiveResize=0;resizable=1;editable=1;movable=1;rotatable=1;deletable=1;locked=0;connectable=1;" parent="vC42W1dHfUrLGCSOYuyR-42" vertex="1">
          <mxGeometry x="-126.32496529395411" y="509.9995391830778" width="5.537723277892742" height="5.537723277892742" as="geometry" />
        </mxCell>
        <mxCell id="vC42W1dHfUrLGCSOYuyR-47" value="" style="group;rotation=0;" parent="vC42W1dHfUrLGCSOYuyR-40" connectable="0" vertex="1">
          <mxGeometry x="70" y="180" width="120" height="90" as="geometry" />
        </mxCell>
        <mxCell id="vC42W1dHfUrLGCSOYuyR-48" value="&lt;font color=&quot;#2d7600&quot;&gt;J602&lt;/font&gt;" style="rounded=1;whiteSpace=wrap;html=1;rotation=0;" parent="vC42W1dHfUrLGCSOYuyR-47" vertex="1">
          <mxGeometry y="30" width="120" height="60" as="geometry" />
        </mxCell>
        <mxCell id="vC42W1dHfUrLGCSOYuyR-49" value="CAN_Out" style="text;html=1;strokeColor=none;fillColor=none;align=center;verticalAlign=middle;whiteSpace=wrap;rounded=0;rotation=0;" parent="vC42W1dHfUrLGCSOYuyR-47" vertex="1">
          <mxGeometry x="30" width="60" height="30" as="geometry" />
        </mxCell>
        <mxCell id="vC42W1dHfUrLGCSOYuyR-50" value="" style="group;rotation=0;" parent="vC42W1dHfUrLGCSOYuyR-40" connectable="0" vertex="1">
          <mxGeometry x="230" y="310" width="110" height="60" as="geometry" />
        </mxCell>
        <mxCell id="vC42W1dHfUrLGCSOYuyR-51" value="&lt;font color=&quot;#f0072e&quot;&gt;J201&lt;/font&gt;" style="rounded=1;whiteSpace=wrap;html=1;rotation=0;" parent="vC42W1dHfUrLGCSOYuyR-50" vertex="1">
          <mxGeometry y="20" width="110" height="40" as="geometry" />
        </mxCell>
        <mxCell id="vC42W1dHfUrLGCSOYuyR-52" value="Car 12V" style="text;html=1;strokeColor=none;fillColor=none;align=center;verticalAlign=middle;whiteSpace=wrap;rounded=0;rotation=0;" parent="vC42W1dHfUrLGCSOYuyR-50" vertex="1">
          <mxGeometry x="28" width="55" height="20" as="geometry" />
        </mxCell>
        <mxCell id="vC42W1dHfUrLGCSOYuyR-53" value="" style="group;rotation=0;" parent="vC42W1dHfUrLGCSOYuyR-40" connectable="0" vertex="1">
          <mxGeometry x="385" y="280" width="120" height="90" as="geometry" />
        </mxCell>
        <mxCell id="vC42W1dHfUrLGCSOYuyR-54" value="J402" style="rounded=1;whiteSpace=wrap;html=1;rotation=0;" parent="vC42W1dHfUrLGCSOYuyR-53" vertex="1">
          <mxGeometry y="30" width="120" height="60" as="geometry" />
        </mxCell>
        <mxCell id="vC42W1dHfUrLGCSOYuyR-55" value="Battery" style="text;html=1;strokeColor=none;fillColor=none;align=center;verticalAlign=middle;whiteSpace=wrap;rounded=0;rotation=0;" parent="vC42W1dHfUrLGCSOYuyR-53" vertex="1">
          <mxGeometry x="30" width="60" height="30" as="geometry" />
        </mxCell>
        <mxCell id="vC42W1dHfUrLGCSOYuyR-56" value="" style="group;rotation=0;" parent="vC42W1dHfUrLGCSOYuyR-40" connectable="0" vertex="1">
          <mxGeometry x="560" y="280" width="120" height="90" as="geometry" />
        </mxCell>
        <mxCell id="vC42W1dHfUrLGCSOYuyR-57" value="J401" style="rounded=1;whiteSpace=wrap;html=1;rotation=0;" parent="vC42W1dHfUrLGCSOYuyR-56" vertex="1">
          <mxGeometry y="30" width="120" height="60" as="geometry" />
        </mxCell>
        <mxCell id="vC42W1dHfUrLGCSOYuyR-58" value="Array" style="text;html=1;strokeColor=none;fillColor=none;align=center;verticalAlign=middle;whiteSpace=wrap;rounded=0;rotation=0;" parent="vC42W1dHfUrLGCSOYuyR-56" vertex="1">
          <mxGeometry x="30" width="60" height="30" as="geometry" />
        </mxCell>
        <mxCell id="vC42W1dHfUrLGCSOYuyR-59" value="" style="group;rotation=0;" parent="vC42W1dHfUrLGCSOYuyR-40" connectable="0" vertex="1">
          <mxGeometry x="70" y="280" width="120" height="90" as="geometry" />
        </mxCell>
        <mxCell id="vC42W1dHfUrLGCSOYuyR-60" value="&lt;font color=&quot;#2d7600&quot;&gt;J601&lt;/font&gt;" style="rounded=1;whiteSpace=wrap;html=1;rotation=0;" parent="vC42W1dHfUrLGCSOYuyR-59" vertex="1">
          <mxGeometry y="30" width="120" height="60" as="geometry" />
        </mxCell>
        <mxCell id="vC42W1dHfUrLGCSOYuyR-61" value="CAN_In" style="text;html=1;strokeColor=none;fillColor=none;align=center;verticalAlign=middle;whiteSpace=wrap;rounded=0;rotation=0;" parent="vC42W1dHfUrLGCSOYuyR-59" vertex="1">
          <mxGeometry x="30" width="60" height="30" as="geometry" />
        </mxCell>
        <mxCell id="vC42W1dHfUrLGCSOYuyR-62" style="edgeStyle=orthogonalEdgeStyle;rounded=0;orthogonalLoop=1;jettySize=auto;html=1;strokeWidth=6;" parent="1" source="HUb-4d5OrKzfbSTe2eDc-22" target="WckYQV1ajARv2_VfDTGR-5" edge="1">
          <mxGeometry relative="1" as="geometry" />
        </mxCell>
        <mxCell id="vC42W1dHfUrLGCSOYuyR-64" style="edgeStyle=orthogonalEdgeStyle;rounded=0;orthogonalLoop=1;jettySize=auto;html=1;fillColor=#f8cecc;strokeColor=#FF0000;strokeWidth=6;" parent="1" edge="1">
          <mxGeometry relative="1" as="geometry">
            <mxPoint x="468.8699999999999" y="4485.047619047618" as="sourcePoint" />
            <mxPoint x="1140.4285714285716" y="4375" as="targetPoint" />
          </mxGeometry>
        </mxCell>
        <mxCell id="Hupmukxp_Hz9lae3J-nx-1" style="edgeStyle=orthogonalEdgeStyle;rounded=0;orthogonalLoop=1;jettySize=auto;html=1;entryX=1;entryY=0.5;entryDx=0;entryDy=0;fillColor=#f8cecc;strokeColor=#FF0000;strokeWidth=6;" parent="1" edge="1">
          <mxGeometry relative="1" as="geometry">
            <Array as="points">
              <mxPoint x="1308" y="5110" />
              <mxPoint x="2870" y="5110" />
              <mxPoint x="2870" y="4794" />
            </Array>
            <mxPoint x="1307.47619047619" y="4311" as="sourcePoint" />
            <mxPoint x="2786.7542852751303" y="4793.456951625007" as="targetPoint" />
          </mxGeometry>
        </mxCell>
        <mxCell id="Hupmukxp_Hz9lae3J-nx-14" value="&lt;font style=&quot;font-size: 30px;&quot;&gt;Motor Contactor 12V&lt;/font&gt;" style="edgeLabel;html=1;align=center;verticalAlign=middle;resizable=0;points=[];" parent="Hupmukxp_Hz9lae3J-nx-1" vertex="1" connectable="0">
          <mxGeometry x="-0.1427" y="3" relative="1" as="geometry">
            <mxPoint x="69" as="offset" />
          </mxGeometry>
        </mxCell>
        <mxCell id="Hupmukxp_Hz9lae3J-nx-5" style="edgeStyle=orthogonalEdgeStyle;rounded=0;orthogonalLoop=1;jettySize=auto;html=1;entryX=0.5;entryY=1;entryDx=0;entryDy=0;fillColor=#f8cecc;strokeColor=#FF0000;strokeWidth=6;" parent="1" edge="1">
          <mxGeometry relative="1" as="geometry">
            <Array as="points">
              <mxPoint x="1440" y="4221" />
              <mxPoint x="1440" y="4575" />
              <mxPoint x="1783" y="4575" />
            </Array>
            <mxPoint x="1355" y="4221.047619047618" as="sourcePoint" />
            <mxPoint x="1783" y="4505" as="targetPoint" />
          </mxGeometry>
        </mxCell>
        <mxCell id="Hupmukxp_Hz9lae3J-nx-17" value="&lt;font style=&quot;font-size: 30px;&quot;&gt;MPPT B 12V&lt;/font&gt;" style="edgeLabel;html=1;align=center;verticalAlign=middle;resizable=0;points=[];rotation=90;" parent="Hupmukxp_Hz9lae3J-nx-5" vertex="1" connectable="0">
          <mxGeometry x="0.3466" y="1" relative="1" as="geometry">
            <mxPoint x="-134" y="-216" as="offset" />
          </mxGeometry>
        </mxCell>
        <mxCell id="Hupmukxp_Hz9lae3J-nx-9" style="edgeStyle=orthogonalEdgeStyle;rounded=0;orthogonalLoop=1;jettySize=auto;html=1;entryX=0.5;entryY=1;entryDx=0;entryDy=0;fillColor=#f8cecc;strokeColor=#FF0000;strokeWidth=6;" parent="1" edge="1">
          <mxGeometry relative="1" as="geometry">
            <Array as="points">
              <mxPoint x="1050" y="4291" />
              <mxPoint x="1050" y="5020" />
              <mxPoint x="1785" y="5020" />
            </Array>
            <mxPoint x="1017.1199999999999" y="4291.047619047618" as="sourcePoint" />
            <mxPoint x="1785" y="4925" as="targetPoint" />
          </mxGeometry>
        </mxCell>
        <mxCell id="Hupmukxp_Hz9lae3J-nx-13" value="&lt;font style=&quot;font-size: 30px;&quot;&gt;MPPT A 12V&lt;/font&gt;" style="edgeLabel;html=1;align=center;verticalAlign=middle;resizable=0;points=[];" parent="Hupmukxp_Hz9lae3J-nx-9" vertex="1" connectable="0">
          <mxGeometry x="0.0736" y="-2" relative="1" as="geometry">
            <mxPoint as="offset" />
          </mxGeometry>
        </mxCell>
        <mxCell id="Hupmukxp_Hz9lae3J-nx-10" style="edgeStyle=orthogonalEdgeStyle;rounded=0;orthogonalLoop=1;jettySize=auto;html=1;entryX=0.5;entryY=1;entryDx=0;entryDy=0;fillColor=#f8cecc;strokeColor=#FF0000;strokeWidth=6;exitX=0.423;exitY=-0.015;exitDx=0;exitDy=0;exitPerimeter=0;" parent="1" source="WckYQV1ajARv2_VfDTGR-6" target="vC42W1dHfUrLGCSOYuyR-5" edge="1">
          <mxGeometry relative="1" as="geometry">
            <Array as="points">
              <mxPoint x="1300" y="4120" />
              <mxPoint x="1785" y="4120" />
            </Array>
            <mxPoint x="1307.5" y="4131" as="sourcePoint" />
            <mxPoint x="1785" y="4065" as="targetPoint" />
          </mxGeometry>
        </mxCell>
        <mxCell id="Hupmukxp_Hz9lae3J-nx-16" value="&lt;font style=&quot;font-size: 30px;&quot;&gt;MPPT A 12V&lt;/font&gt;" style="edgeLabel;html=1;align=center;verticalAlign=middle;resizable=0;points=[];" parent="Hupmukxp_Hz9lae3J-nx-10" vertex="1" connectable="0">
          <mxGeometry x="0.5759" y="-5" relative="1" as="geometry">
            <mxPoint x="-262" as="offset" />
          </mxGeometry>
        </mxCell>
        <mxCell id="4jA8AI119RxGImvPhyh8-1" value="&lt;ul&gt;&lt;li&gt;&lt;span style=&quot;font-size: 46px; background-color: initial;&quot;&gt;&lt;b&gt;Fusebox Lines&lt;/b&gt;&lt;/span&gt;&lt;/li&gt;&lt;li&gt;&lt;span style=&quot;font-size: 46px;&quot;&gt;EE:&lt;/span&gt;&lt;/li&gt;&lt;ul&gt;&lt;li&gt;&lt;span style=&quot;font-size: 46px;&quot;&gt;RTD Board&lt;/span&gt;&lt;/li&gt;&lt;li&gt;&lt;span style=&quot;font-size: 46px;&quot;&gt;3 x MPPT&lt;/span&gt;&lt;/li&gt;&lt;li&gt;&lt;span style=&quot;font-size: 46px;&quot;&gt;2 x Contactor Driver&lt;/span&gt;&lt;/li&gt;&lt;li&gt;&lt;span style=&quot;font-size: 46px;&quot;&gt;Supplemental Monitoring Board&lt;/span&gt;&lt;/li&gt;&lt;li&gt;&lt;span style=&quot;font-size: 46px;&quot;&gt;Telemetry Board&lt;/span&gt;&lt;/li&gt;&lt;li&gt;&lt;span style=&quot;font-size: 46px;&quot;&gt;Horn Board (one channel relay)&lt;/span&gt;&lt;/li&gt;&lt;/ul&gt;&lt;li&gt;&lt;span style=&quot;font-size: 46px;&quot;&gt;Not in EE:&lt;/span&gt;&lt;/li&gt;&lt;ul&gt;&lt;li&gt;&lt;span style=&quot;font-size: 46px;&quot;&gt;2 xControls Leader&lt;/span&gt;&lt;/li&gt;&lt;li&gt;&lt;span style=&quot;font-size: 46px;&quot;&gt;Controls Lighting/Minion&lt;/span&gt;&lt;/li&gt;&lt;li&gt;&lt;span style=&quot;font-size: 46px;&quot;&gt;BPS Leader&lt;/span&gt;&lt;/li&gt;&lt;li&gt;&lt;span style=&quot;font-size: 46px;&quot;&gt;Driver Fans&lt;/span&gt;&lt;/li&gt;&lt;li&gt;&lt;span style=&quot;font-size: 46px;&quot;&gt;Driver Camera&lt;/span&gt;&lt;/li&gt;&lt;li&gt;&lt;span style=&quot;font-size: 46px;&quot;&gt;Radio&lt;/span&gt;&lt;/li&gt;&lt;/ul&gt;&lt;/ul&gt;" style="text;html=1;strokeColor=none;fillColor=none;spacing=5;spacingTop=-20;whiteSpace=wrap;overflow=hidden;rounded=0;" parent="1" vertex="1">
          <mxGeometry x="-1610" y="6260" width="759" height="908" as="geometry" />
        </mxCell>
        <mxCell id="5dPaA2qYznnAZKSeOZfX-1" value="&lt;h1&gt;&lt;span style=&quot;font-size: 46px;&quot;&gt;Electronics Enclosure Components:&lt;/span&gt;&lt;/h1&gt;&lt;div&gt;&lt;ul&gt;&lt;li&gt;&lt;span style=&quot;font-size: 46px; background-color: initial;&quot;&gt;1 x RTD Board&lt;/span&gt;&lt;/li&gt;&lt;li&gt;&lt;span style=&quot;font-size: 46px; background-color: initial;&quot;&gt;1 x Supplemental Monitering Board&lt;/span&gt;&lt;br&gt;&lt;/li&gt;&lt;li&gt;&lt;span style=&quot;font-size: 46px;&quot;&gt;2 x Contactor Driver Board&lt;/span&gt;&lt;/li&gt;&lt;li&gt;&lt;span style=&quot;font-size: 46px;&quot;&gt;3 x MPPT Board&lt;/span&gt;&lt;/li&gt;&lt;li&gt;&lt;span style=&quot;font-size: 46px;&quot;&gt;1 x 12 Way Fuse box&lt;/span&gt;&lt;/li&gt;&lt;li&gt;&lt;span style=&quot;font-size: 46px;&quot;&gt;1 x 6 Way Fuse box&lt;/span&gt;&lt;/li&gt;&lt;li&gt;&lt;span style=&quot;font-size: 46px;&quot;&gt;1 x one channel relay board&lt;/span&gt;&lt;/li&gt;&lt;li&gt;&lt;span style=&quot;font-size: 46px;&quot;&gt;DC-DC Converter&lt;/span&gt;&lt;/li&gt;&lt;li&gt;&lt;span style=&quot;font-size: 46px;&quot;&gt;Power Board&lt;/span&gt;&lt;/li&gt;&lt;li&gt;&lt;span style=&quot;font-size: 46px;&quot;&gt;Telemetry Board&lt;/span&gt;&lt;/li&gt;&lt;li&gt;&lt;span style=&quot;font-size: 46px;&quot;&gt;Array Contactor&lt;/span&gt;&lt;/li&gt;&lt;li&gt;&lt;span style=&quot;font-size: 46px;&quot;&gt;Motor Contactor&lt;/span&gt;&lt;/li&gt;&lt;/ul&gt;&lt;/div&gt;" style="text;html=1;strokeColor=none;fillColor=none;spacing=5;spacingTop=-20;whiteSpace=wrap;overflow=hidden;rounded=0;" parent="1" vertex="1">
          <mxGeometry x="-800" y="6250" width="759" height="908" as="geometry" />
        </mxCell>
        <mxCell id="5dPaA2qYznnAZKSeOZfX-2" style="edgeStyle=orthogonalEdgeStyle;rounded=0;orthogonalLoop=1;jettySize=auto;html=1;entryX=1;entryY=0.5;entryDx=0;entryDy=0;strokeWidth=6;fillColor=#f8cecc;strokeColor=#FF0000;" parent="1" source="WckYQV1ajARv2_VfDTGR-1" target="gW2Hue4rhhFIJ8Cr2Drh-2" edge="1">
          <mxGeometry relative="1" as="geometry">
            <Array as="points">
              <mxPoint x="970" y="3720" />
              <mxPoint x="1820" y="3720" />
              <mxPoint x="1820" y="3579" />
            </Array>
          </mxGeometry>
        </mxCell>
        <mxCell id="0B06wVFiQE8JpOhP0xj3-1" value="&lt;font style=&quot;font-size: 30px;&quot;&gt;Array Contactor Driver 12V&lt;/font&gt;" style="edgeLabel;html=1;align=center;verticalAlign=middle;resizable=0;points=[];" parent="5dPaA2qYznnAZKSeOZfX-2" vertex="1" connectable="0">
          <mxGeometry x="-0.016" relative="1" as="geometry">
            <mxPoint x="-62" y="5" as="offset" />
          </mxGeometry>
        </mxCell>
        <mxCell id="5dPaA2qYznnAZKSeOZfX-9" style="edgeStyle=orthogonalEdgeStyle;rounded=0;orthogonalLoop=1;jettySize=auto;html=1;exitX=0.801;exitY=1;exitDx=0;exitDy=0;entryX=0.5;entryY=0;entryDx=0;entryDy=0;strokeWidth=20;exitPerimeter=0;" parent="1" source="lcz1YiiRIOjrepNpbd1l-58" target="BEkewT1VqW6p_2pLXly9-13" edge="1">
          <mxGeometry relative="1" as="geometry">
            <mxPoint x="3230" y="3557.85" as="sourcePoint" />
            <Array as="points">
              <mxPoint x="1327" y="2768" />
              <mxPoint x="3230" y="2768" />
              <mxPoint x="3230" y="3850" />
              <mxPoint x="2510" y="3850" />
            </Array>
          </mxGeometry>
        </mxCell>
        <mxCell id="5dPaA2qYznnAZKSeOZfX-10" value="&lt;font style=&quot;font-size: 50px;&quot;&gt;PWR from + HV Contactor&lt;/font&gt;" style="edgeLabel;html=1;align=center;verticalAlign=middle;resizable=0;points=[];" parent="5dPaA2qYznnAZKSeOZfX-9" vertex="1" connectable="0">
          <mxGeometry x="-0.092" y="3" relative="1" as="geometry">
            <mxPoint x="-211" y="-5" as="offset" />
          </mxGeometry>
        </mxCell>
        <mxCell id="5dPaA2qYznnAZKSeOZfX-24" style="edgeStyle=orthogonalEdgeStyle;rounded=0;orthogonalLoop=1;jettySize=auto;html=1;entryX=0;entryY=0.5;entryDx=0;entryDy=0;strokeWidth=20;exitX=0.682;exitY=0.997;exitDx=0;exitDy=0;exitPerimeter=0;" parent="1" source="lcz1YiiRIOjrepNpbd1l-58" target="BEkewT1VqW6p_2pLXly9-7" edge="1">
          <mxGeometry relative="1" as="geometry">
            <mxPoint x="2771.49" y="2651" as="sourcePoint" />
            <Array as="points">
              <mxPoint x="1240" y="3020" />
              <mxPoint x="2030" y="3020" />
              <mxPoint x="2030" y="3313" />
            </Array>
          </mxGeometry>
        </mxCell>
        <mxCell id="5dPaA2qYznnAZKSeOZfX-25" value="&lt;font style=&quot;font-size: 50px;&quot;&gt;PWR from Precharge Contactor&lt;/font&gt;" style="edgeLabel;html=1;align=center;verticalAlign=middle;resizable=0;points=[];" parent="5dPaA2qYznnAZKSeOZfX-24" vertex="1" connectable="0">
          <mxGeometry x="-0.4784" y="-2" relative="1" as="geometry">
            <mxPoint x="402" y="8" as="offset" />
          </mxGeometry>
        </mxCell>
        <mxCell id="5dPaA2qYznnAZKSeOZfX-27" style="edgeStyle=orthogonalEdgeStyle;rounded=0;orthogonalLoop=1;jettySize=auto;html=1;entryX=0.75;entryY=0;entryDx=0;entryDy=0;fillColor=#f8cecc;strokeColor=#FF0000;strokeWidth=20;" parent="1" source="BEkewT1VqW6p_2pLXly9-8" target="vC42W1dHfUrLGCSOYuyR-8" edge="1">
          <mxGeometry relative="1" as="geometry">
            <Array as="points">
              <mxPoint x="3050" y="3313" />
              <mxPoint x="3050" y="3790" />
              <mxPoint x="2040" y="3790" />
              <mxPoint x="2040" y="3890" />
              <mxPoint x="1975" y="3890" />
            </Array>
          </mxGeometry>
        </mxCell>
        <mxCell id="5dPaA2qYznnAZKSeOZfX-28" style="edgeStyle=orthogonalEdgeStyle;rounded=0;orthogonalLoop=1;jettySize=auto;html=1;entryX=0.75;entryY=0;entryDx=0;entryDy=0;fillColor=#f8cecc;strokeColor=#FF0000;strokeWidth=20;" parent="1" source="BEkewT1VqW6p_2pLXly9-8" target="vC42W1dHfUrLGCSOYuyR-32" edge="1">
          <mxGeometry relative="1" as="geometry">
            <Array as="points">
              <mxPoint x="3050" y="3313" />
              <mxPoint x="3050" y="3790" />
              <mxPoint x="2040" y="3790" />
              <mxPoint x="2040" y="4310" />
              <mxPoint x="1973" y="4310" />
            </Array>
          </mxGeometry>
        </mxCell>
        <mxCell id="5dPaA2qYznnAZKSeOZfX-30" style="edgeStyle=orthogonalEdgeStyle;rounded=0;orthogonalLoop=1;jettySize=auto;html=1;entryX=0.75;entryY=0;entryDx=0;entryDy=0;fillColor=#f8cecc;strokeColor=#FF0000;strokeWidth=20;" parent="1" source="BEkewT1VqW6p_2pLXly9-8" target="vC42W1dHfUrLGCSOYuyR-54" edge="1">
          <mxGeometry relative="1" as="geometry">
            <Array as="points">
              <mxPoint x="3050" y="3313" />
              <mxPoint x="3050" y="3790" />
              <mxPoint x="2040" y="3790" />
              <mxPoint x="2040" y="4740" />
              <mxPoint x="1975" y="4740" />
            </Array>
          </mxGeometry>
        </mxCell>
        <mxCell id="0srh-OPYc8SbyDrqKKVl-1" value="" style="group" parent="1" vertex="1" connectable="0">
          <mxGeometry x="-700" y="3770" width="401.93" height="379.85" as="geometry" />
        </mxCell>
        <mxCell id="0srh-OPYc8SbyDrqKKVl-2" value="&lt;font style=&quot;&quot;&gt;&lt;font style=&quot;font-size: 40px;&quot;&gt;Power Board&lt;br&gt;&lt;/font&gt;&lt;font style=&quot;font-size: 30px;&quot;&gt;54 mm x 69 mm&lt;/font&gt;&lt;br&gt;&lt;/font&gt;" style="rounded=1;whiteSpace=wrap;html=1;rotation=90;horizontal=0;arcSize=5;strokeWidth=6;movable=1;resizable=1;rotatable=1;deletable=1;editable=1;locked=0;connectable=1;container=1;" parent="0srh-OPYc8SbyDrqKKVl-1" vertex="1">
          <mxGeometry x="90.88" y="-90" width="241.05" height="399.85" as="geometry" />
        </mxCell>
        <mxCell id="0srh-OPYc8SbyDrqKKVl-12" value="&lt;font color=&quot;#f0021a&quot;&gt;SUPP PWR 2&lt;/font&gt;" style="rounded=1;whiteSpace=wrap;html=1;" parent="0srh-OPYc8SbyDrqKKVl-2" vertex="1">
          <mxGeometry x="-54.129999999999995" y="110" width="95" height="40" as="geometry" />
        </mxCell>
        <mxCell id="0srh-OPYc8SbyDrqKKVl-13" value="&lt;font color=&quot;#f0021a&quot;&gt;SUPP PWR 1&lt;/font&gt;" style="rounded=1;whiteSpace=wrap;html=1;" parent="0srh-OPYc8SbyDrqKKVl-2" vertex="1">
          <mxGeometry x="-55.50999999999999" y="250" width="95" height="40" as="geometry" />
        </mxCell>
        <mxCell id="mzfrpFoBvAI-fzSK0R1V-1" value="SUPP Monitoring" style="rounded=1;whiteSpace=wrap;html=1;" parent="0srh-OPYc8SbyDrqKKVl-2" vertex="1">
          <mxGeometry x="67.12" y="90" width="95" height="40" as="geometry" />
        </mxCell>
        <mxCell id="0srh-OPYc8SbyDrqKKVl-14" value="&lt;font color=&quot;#f0021a&quot;&gt;FUSE PWR OUT&lt;/font&gt;" style="rounded=1;whiteSpace=wrap;html=1;" parent="0srh-OPYc8SbyDrqKKVl-1" vertex="1">
          <mxGeometry x="281.38" y="24" width="95" height="40" as="geometry" />
        </mxCell>
        <mxCell id="0srh-OPYc8SbyDrqKKVl-15" value="&lt;font color=&quot;#f0021a&quot;&gt;DCDC POWER&lt;/font&gt;" style="rounded=1;whiteSpace=wrap;html=1;" parent="0srh-OPYc8SbyDrqKKVl-1" vertex="1">
          <mxGeometry x="280" y="158" width="95" height="40" as="geometry" />
        </mxCell>
        <mxCell id="q_d0SWAsdnPDR0DZQurz-1" value="" style="group" parent="1" vertex="1" connectable="0">
          <mxGeometry x="-664.63" y="4162" width="705" height="682.93" as="geometry" />
        </mxCell>
        <mxCell id="q_d0SWAsdnPDR0DZQurz-2" value="&lt;font style=&quot;&quot;&gt;&lt;span style=&quot;font-size: 40px;&quot;&gt;DC - DC Converter&lt;br&gt;&lt;/span&gt;&lt;font style=&quot;font-size: 30px;&quot;&gt;215 mm x 115 mm&lt;/font&gt;&lt;br&gt;&lt;/font&gt;" style="rounded=1;whiteSpace=wrap;html=1;rotation=90;horizontal=0;arcSize=5;strokeWidth=6;movable=1;resizable=1;rotatable=1;deletable=1;editable=1;locked=0;connectable=1;container=1;" parent="q_d0SWAsdnPDR0DZQurz-1" vertex="1">
          <mxGeometry x="-208.58" y="-200.84" width="514.9187636927402" height="878.89" as="geometry" />
        </mxCell>
        <mxCell id="RaDiAxv7X_-Mm_SVZ_yI-1" value="&lt;font color=&quot;#f0021a&quot;&gt;DC- DC +&lt;/font&gt;" style="rounded=1;whiteSpace=wrap;html=1;" parent="q_d0SWAsdnPDR0DZQurz-2" vertex="1">
          <mxGeometry x="-120" y="310" width="95" height="40" as="geometry" />
        </mxCell>
        <mxCell id="RaDiAxv7X_-Mm_SVZ_yI-2" value="DC- DC -" style="rounded=1;whiteSpace=wrap;html=1;" parent="q_d0SWAsdnPDR0DZQurz-2" vertex="1">
          <mxGeometry x="-120" y="490" width="95" height="40" as="geometry" />
        </mxCell>
        <mxCell id="RaDiAxv7X_-Mm_SVZ_yI-3" style="edgeStyle=orthogonalEdgeStyle;rounded=0;orthogonalLoop=1;jettySize=auto;html=1;entryX=0;entryY=0.5;entryDx=0;entryDy=0;strokeWidth=6;" parent="1" source="RaDiAxv7X_-Mm_SVZ_yI-2" target="0srh-OPYc8SbyDrqKKVl-15" edge="1">
          <mxGeometry relative="1" as="geometry">
            <Array as="points">
              <mxPoint x="-946" y="4432" />
              <mxPoint x="-1100" y="4432" />
              <mxPoint x="-1100" y="4090" />
              <mxPoint x="-470" y="4090" />
              <mxPoint x="-470" y="3948" />
            </Array>
          </mxGeometry>
        </mxCell>
        <mxCell id="RaDiAxv7X_-Mm_SVZ_yI-4" style="edgeStyle=orthogonalEdgeStyle;rounded=0;orthogonalLoop=1;jettySize=auto;html=1;entryX=1;entryY=0.5;entryDx=0;entryDy=0;strokeWidth=6;fillColor=#f8cecc;strokeColor=#FF0000;" parent="1" source="RaDiAxv7X_-Mm_SVZ_yI-1" target="0srh-OPYc8SbyDrqKKVl-15" edge="1">
          <mxGeometry relative="1" as="geometry">
            <Array as="points">
              <mxPoint x="-747" y="4291" />
              <mxPoint x="-747" y="4120" />
              <mxPoint x="-270" y="4120" />
              <mxPoint x="-270" y="3948" />
            </Array>
          </mxGeometry>
        </mxCell>
        <mxCell id="RaDiAxv7X_-Mm_SVZ_yI-5" style="edgeStyle=orthogonalEdgeStyle;rounded=0;orthogonalLoop=1;jettySize=auto;html=1;entryX=0;entryY=0.5;entryDx=0;entryDy=0;strokeWidth=6;" parent="1" source="0srh-OPYc8SbyDrqKKVl-14" target="HUb-4d5OrKzfbSTe2eDc-22" edge="1">
          <mxGeometry relative="1" as="geometry" />
        </mxCell>
        <mxCell id="RaDiAxv7X_-Mm_SVZ_yI-6" style="edgeStyle=orthogonalEdgeStyle;rounded=0;orthogonalLoop=1;jettySize=auto;html=1;exitX=1;exitY=0.5;exitDx=0;exitDy=0;entryX=0;entryY=0.5;entryDx=0;entryDy=0;fillColor=#f8cecc;strokeColor=#FF0000;strokeWidth=6;" parent="1" source="0srh-OPYc8SbyDrqKKVl-14" target="HUb-4d5OrKzfbSTe2eDc-21" edge="1">
          <mxGeometry relative="1" as="geometry">
            <Array as="points">
              <mxPoint x="20" y="3814" />
              <mxPoint x="20" y="4480" />
            </Array>
          </mxGeometry>
        </mxCell>
        <mxCell id="K_gU6z7FangIDErXhnKk-1" value="" style="group" parent="1" vertex="1" connectable="0">
          <mxGeometry x="-2520" y="3796.8599999999997" width="395" height="273.14" as="geometry" />
        </mxCell>
        <mxCell id="K_gU6z7FangIDErXhnKk-2" value="&lt;font style=&quot;&quot;&gt;&lt;font style=&quot;font-size: 40px;&quot;&gt;Supplemental Battery 1&amp;nbsp;&lt;br&gt;&lt;/font&gt;&lt;font style=&quot;font-size: 30px;&quot;&gt;161 mm x 65 mm&lt;/font&gt;&lt;br&gt;&lt;/font&gt;" style="rounded=1;whiteSpace=wrap;html=1;rotation=90;horizontal=0;arcSize=5;strokeWidth=6;movable=1;resizable=1;rotatable=1;deletable=1;editable=1;locked=0;connectable=1;container=1;" parent="K_gU6z7FangIDErXhnKk-1" vertex="1">
          <mxGeometry x="118.0549134491414" y="-128.38929733638665" width="276.9450865508586" height="401.52929733638666" as="geometry" />
        </mxCell>
        <mxCell id="K_gU6z7FangIDErXhnKk-23" value="&lt;font color=&quot;#f0021a&quot;&gt;PWR&lt;/font&gt;" style="rounded=1;whiteSpace=wrap;html=1;" parent="K_gU6z7FangIDErXhnKk-2" vertex="1">
          <mxGeometry x="251.94538958116166" y="86.95835178083112" width="75.80808080808083" height="30.348888888888887" as="geometry" />
        </mxCell>
        <mxCell id="K_gU6z7FangIDErXhnKk-24" value="GND" style="rounded=1;whiteSpace=wrap;html=1;" parent="K_gU6z7FangIDErXhnKk-2" vertex="1">
          <mxGeometry x="251.94538958116166" y="284.22612955860916" width="75.80808080808083" height="30.348888888888887" as="geometry" />
        </mxCell>
        <mxCell id="K_gU6z7FangIDErXhnKk-25" value="&lt;font style=&quot;&quot;&gt;&lt;font style=&quot;font-size: 40px;&quot;&gt;Supplemental Battery 2&lt;br&gt;&lt;/font&gt;&lt;font style=&quot;font-size: 30px;&quot;&gt;161 mm x 65 mm&lt;/font&gt;&lt;br&gt;&lt;/font&gt;" style="rounded=1;whiteSpace=wrap;html=1;rotation=90;horizontal=0;arcSize=5;strokeWidth=6;movable=1;resizable=1;rotatable=1;deletable=1;editable=1;locked=0;connectable=1;container=1;" parent="1" vertex="1">
          <mxGeometry x="-2401.945086550859" y="4050.000702663613" width="276.9450865508586" height="401.52929733638666" as="geometry" />
        </mxCell>
        <mxCell id="K_gU6z7FangIDErXhnKk-26" value="&lt;font color=&quot;#f0021a&quot;&gt;PWR&lt;/font&gt;" style="rounded=1;whiteSpace=wrap;html=1;" parent="K_gU6z7FangIDErXhnKk-25" vertex="1">
          <mxGeometry x="251.94538958116166" y="86.95835178083112" width="75.80808080808083" height="30.348888888888887" as="geometry" />
        </mxCell>
        <mxCell id="K_gU6z7FangIDErXhnKk-27" value="GND" style="rounded=1;whiteSpace=wrap;html=1;" parent="K_gU6z7FangIDErXhnKk-25" vertex="1">
          <mxGeometry x="251.94538958116166" y="284.22612955860916" width="75.80808080808083" height="30.348888888888887" as="geometry" />
        </mxCell>
        <mxCell id="rMdRtb_ls1uPioY6ne74-1" style="edgeStyle=orthogonalEdgeStyle;rounded=0;orthogonalLoop=1;jettySize=auto;html=1;entryX=0.5;entryY=1;entryDx=0;entryDy=0;fillColor=#f8cecc;strokeColor=#FF0000;strokeWidth=6;" parent="1" source="K_gU6z7FangIDErXhnKk-27" target="0srh-OPYc8SbyDrqKKVl-13" edge="1">
          <mxGeometry relative="1" as="geometry">
            <Array as="points">
              <mxPoint x="-1369" y="4349" />
              <mxPoint x="-1369" y="4020" />
              <mxPoint x="-617" y="4020" />
              <mxPoint x="-617" y="3980" />
            </Array>
          </mxGeometry>
        </mxCell>
        <mxCell id="rMdRtb_ls1uPioY6ne74-7" value="&lt;font style=&quot;font-size: 30px;&quot;&gt;12V PWR&lt;/font&gt;" style="edgeLabel;html=1;align=center;verticalAlign=middle;resizable=0;points=[];" parent="rMdRtb_ls1uPioY6ne74-1" vertex="1" connectable="0">
          <mxGeometry x="-0.5247" relative="1" as="geometry">
            <mxPoint as="offset" />
          </mxGeometry>
        </mxCell>
        <mxCell id="rMdRtb_ls1uPioY6ne74-2" style="edgeStyle=orthogonalEdgeStyle;rounded=0;orthogonalLoop=1;jettySize=auto;html=1;entryX=0;entryY=0.5;entryDx=0;entryDy=0;strokeWidth=6;" parent="1" source="K_gU6z7FangIDErXhnKk-26" target="0srh-OPYc8SbyDrqKKVl-13" edge="1">
          <mxGeometry relative="1" as="geometry">
            <Array as="points">
              <mxPoint x="-1400" y="4152" />
              <mxPoint x="-1400" y="3950" />
            </Array>
          </mxGeometry>
        </mxCell>
        <mxCell id="rMdRtb_ls1uPioY6ne74-3" value="&lt;font style=&quot;font-size: 30px;&quot;&gt;12V GND&lt;/font&gt;" style="edgeLabel;html=1;align=center;verticalAlign=middle;resizable=0;points=[];" parent="rMdRtb_ls1uPioY6ne74-2" vertex="1" connectable="0">
          <mxGeometry x="-0.4471" y="5" relative="1" as="geometry">
            <mxPoint as="offset" />
          </mxGeometry>
        </mxCell>
        <mxCell id="rMdRtb_ls1uPioY6ne74-8" style="edgeStyle=orthogonalEdgeStyle;rounded=0;orthogonalLoop=1;jettySize=auto;html=1;entryX=0;entryY=0.5;entryDx=0;entryDy=0;strokeWidth=6;" parent="1" source="K_gU6z7FangIDErXhnKk-24" target="0srh-OPYc8SbyDrqKKVl-12" edge="1">
          <mxGeometry relative="1" as="geometry">
            <Array as="points">
              <mxPoint x="-2112" y="3920" />
              <mxPoint x="-1369" y="3920" />
              <mxPoint x="-1369" y="3810" />
            </Array>
          </mxGeometry>
        </mxCell>
        <mxCell id="rMdRtb_ls1uPioY6ne74-10" value="&lt;font style=&quot;font-size: 30px;&quot;&gt;12V GND&lt;/font&gt;" style="edgeLabel;html=1;align=center;verticalAlign=middle;resizable=0;points=[];" parent="rMdRtb_ls1uPioY6ne74-8" vertex="1" connectable="0">
          <mxGeometry x="-0.3865" y="6" relative="1" as="geometry">
            <mxPoint as="offset" />
          </mxGeometry>
        </mxCell>
        <mxCell id="rMdRtb_ls1uPioY6ne74-9" style="edgeStyle=orthogonalEdgeStyle;rounded=0;orthogonalLoop=1;jettySize=auto;html=1;strokeWidth=6;fillColor=#f8cecc;strokeColor=#FF0000;" parent="1" source="K_gU6z7FangIDErXhnKk-23" edge="1">
          <mxGeometry relative="1" as="geometry">
            <mxPoint x="-630" y="3790" as="targetPoint" />
            <Array as="points">
              <mxPoint x="-1369" y="3771" />
              <mxPoint x="-1369" y="3740" />
              <mxPoint x="-630" y="3740" />
              <mxPoint x="-630" y="3790" />
            </Array>
          </mxGeometry>
        </mxCell>
        <mxCell id="rMdRtb_ls1uPioY6ne74-11" value="&lt;font style=&quot;font-size: 30px;&quot;&gt;12V PWR&lt;/font&gt;" style="edgeLabel;html=1;align=center;verticalAlign=middle;resizable=0;points=[];" parent="rMdRtb_ls1uPioY6ne74-9" vertex="1" connectable="0">
          <mxGeometry x="-0.3944" y="4" relative="1" as="geometry">
            <mxPoint x="-1" as="offset" />
          </mxGeometry>
        </mxCell>
        <mxCell id="rMdRtb_ls1uPioY6ne74-13" value="&lt;font style=&quot;font-size: 60px;&quot;&gt;Supplemental Enclosure&amp;nbsp;&lt;/font&gt;" style="text;html=1;strokeColor=none;fillColor=none;align=center;verticalAlign=middle;whiteSpace=wrap;rounded=0;" parent="1" vertex="1">
          <mxGeometry x="-2550" y="2810" width="653.47" height="150" as="geometry" />
        </mxCell>
        <mxCell id="ixvvVNMrcIGpWkiWEOKT-2" value="" style="group;rotation=0;" parent="1" vertex="1" connectable="0">
          <mxGeometry x="-2570" y="3140" width="671" height="559.8499999999999" as="geometry" />
        </mxCell>
        <mxCell id="WOc30SIgsXHmv4fvjYI6-22" value="" style="group;rotation=0;" parent="ixvvVNMrcIGpWkiWEOKT-2" vertex="1" connectable="0">
          <mxGeometry width="671" height="559.8499999999999" as="geometry" />
        </mxCell>
        <mxCell id="itStHnxh1_IJJDTB-QDk-1" value="" style="group;rotation=0;" parent="WOc30SIgsXHmv4fvjYI6-22" vertex="1" connectable="0">
          <mxGeometry width="630" height="559.85" as="geometry" />
        </mxCell>
        <mxCell id="itStHnxh1_IJJDTB-QDk-2" value="&lt;font style=&quot;&quot;&gt;&lt;font style=&quot;font-size: 40px;&quot;&gt;Supplemental Monitoring Board&lt;br&gt;&lt;/font&gt;&lt;font style=&quot;font-size: 30px;&quot;&gt;61.5 mm x 38.5 mm&lt;/font&gt;&lt;br&gt;&lt;/font&gt;" style="rounded=1;whiteSpace=wrap;html=1;rotation=90;horizontal=0;arcSize=5;strokeWidth=6;movable=1;resizable=1;rotatable=1;deletable=1;editable=1;locked=0;connectable=1;container=1;" parent="itStHnxh1_IJJDTB-QDk-1" vertex="1">
          <mxGeometry x="160" y="-80" width="390.00131490558056" height="589.3274252994603" as="geometry" />
        </mxCell>
        <mxCell id="WOc30SIgsXHmv4fvjYI6-4" value="" style="group;rotation=0;" parent="itStHnxh1_IJJDTB-QDk-2" connectable="0" vertex="1">
          <mxGeometry x="110" y="361" width="120" height="90" as="geometry" />
        </mxCell>
        <mxCell id="WOc30SIgsXHmv4fvjYI6-5" value="&lt;font color=&quot;#2d7600&quot;&gt;J3&lt;/font&gt;" style="rounded=1;whiteSpace=wrap;html=1;rotation=0;" parent="WOc30SIgsXHmv4fvjYI6-4" vertex="1">
          <mxGeometry y="30" width="120" height="60" as="geometry" />
        </mxCell>
        <mxCell id="WOc30SIgsXHmv4fvjYI6-6" value="CAN_In" style="text;html=1;strokeColor=none;fillColor=none;align=center;verticalAlign=middle;whiteSpace=wrap;rounded=0;rotation=0;" parent="WOc30SIgsXHmv4fvjYI6-4" vertex="1">
          <mxGeometry x="30" width="60" height="30" as="geometry" />
        </mxCell>
        <mxCell id="WOc30SIgsXHmv4fvjYI6-7" value="" style="group;rotation=0;" parent="itStHnxh1_IJJDTB-QDk-2" connectable="0" vertex="1">
          <mxGeometry x="260" y="361" width="120" height="90" as="geometry" />
        </mxCell>
        <mxCell id="WOc30SIgsXHmv4fvjYI6-8" value="&lt;font color=&quot;#2d7600&quot;&gt;J2&lt;/font&gt;" style="rounded=1;whiteSpace=wrap;html=1;rotation=0;" parent="WOc30SIgsXHmv4fvjYI6-7" vertex="1">
          <mxGeometry y="30" width="120" height="60" as="geometry" />
        </mxCell>
        <mxCell id="WOc30SIgsXHmv4fvjYI6-9" value="CAN_Out" style="text;html=1;strokeColor=none;fillColor=none;align=center;verticalAlign=middle;whiteSpace=wrap;rounded=0;rotation=0;" parent="WOc30SIgsXHmv4fvjYI6-7" vertex="1">
          <mxGeometry x="30" width="60" height="30" as="geometry" />
        </mxCell>
        <mxCell id="WOc30SIgsXHmv4fvjYI6-1" value="&lt;font color=&quot;#f00000&quot;&gt;J4&lt;/font&gt;" style="rounded=1;whiteSpace=wrap;html=1;rotation=0;" parent="itStHnxh1_IJJDTB-QDk-1" vertex="1">
          <mxGeometry x="110" y="309" width="120" height="60" as="geometry" />
        </mxCell>
        <mxCell id="WOc30SIgsXHmv4fvjYI6-23" value="" style="group;rotation=0;" parent="ixvvVNMrcIGpWkiWEOKT-2" vertex="1" connectable="0">
          <mxGeometry x="514" y="55" width="105" height="120" as="geometry" />
        </mxCell>
        <mxCell id="WOc30SIgsXHmv4fvjYI6-2" value="J5" style="rounded=1;whiteSpace=wrap;html=1;rotation=-270;" parent="WOc30SIgsXHmv4fvjYI6-23" vertex="1">
          <mxGeometry x="-30" y="30" width="120" height="60" as="geometry" />
        </mxCell>
        <mxCell id="WOc30SIgsXHmv4fvjYI6-3" value="Supplemental Power Connector" style="text;html=1;strokeColor=none;fillColor=none;align=center;verticalAlign=middle;whiteSpace=wrap;rounded=0;rotation=-270;" parent="WOc30SIgsXHmv4fvjYI6-23" vertex="1">
          <mxGeometry x="59" y="50" width="60" height="30" as="geometry" />
        </mxCell>
        <mxCell id="6WIfhIwGxDB4TJnzUiY9-1" style="edgeStyle=orthogonalEdgeStyle;rounded=0;orthogonalLoop=1;jettySize=auto;html=1;fillColor=#f8cecc;strokeColor=#FF0000;strokeWidth=6;" parent="1" source="HUb-4d5OrKzfbSTe2eDc-23" target="9Dte4MXfXeRgDscpDeYK-14" edge="1">
          <mxGeometry relative="1" as="geometry">
            <Array as="points">
              <mxPoint x="560" y="4060" />
            </Array>
          </mxGeometry>
        </mxCell>
        <mxCell id="6WIfhIwGxDB4TJnzUiY9-2" value="&lt;font style=&quot;font-size: 30px;&quot;&gt;Driver Camera 12V&lt;/font&gt;" style="edgeLabel;html=1;align=center;verticalAlign=middle;resizable=0;points=[];rotation=90;" parent="6WIfhIwGxDB4TJnzUiY9-1" vertex="1" connectable="0">
          <mxGeometry x="0.3436" relative="1" as="geometry">
            <mxPoint y="87" as="offset" />
          </mxGeometry>
        </mxCell>
        <mxCell id="9Dte4MXfXeRgDscpDeYK-4" style="edgeStyle=orthogonalEdgeStyle;rounded=0;orthogonalLoop=1;jettySize=auto;html=1;fillColor=#f8cecc;strokeColor=#FF0000;strokeWidth=6;entryX=0.279;entryY=-0.001;entryDx=0;entryDy=0;entryPerimeter=0;" parent="1" source="HUb-4d5OrKzfbSTe2eDc-28" target="9Dte4MXfXeRgDscpDeYK-14" edge="1">
          <mxGeometry relative="1" as="geometry">
            <mxPoint x="637.5" y="5240" as="targetPoint" />
          </mxGeometry>
        </mxCell>
        <mxCell id="9Dte4MXfXeRgDscpDeYK-8" value="&lt;font style=&quot;font-size: 30px;&quot;&gt;Controls Leader 12V&lt;/font&gt;" style="edgeLabel;html=1;align=center;verticalAlign=middle;resizable=0;points=[];rotation=90;" parent="9Dte4MXfXeRgDscpDeYK-4" vertex="1" connectable="0">
          <mxGeometry x="0.2438" y="-3" relative="1" as="geometry">
            <mxPoint x="3" y="5" as="offset" />
          </mxGeometry>
        </mxCell>
        <mxCell id="9Dte4MXfXeRgDscpDeYK-5" style="edgeStyle=orthogonalEdgeStyle;rounded=0;orthogonalLoop=1;jettySize=auto;html=1;fillColor=#f8cecc;strokeColor=#FF0000;strokeWidth=6;entryX=0.566;entryY=0.004;entryDx=0;entryDy=0;entryPerimeter=0;" parent="1" source="HUb-4d5OrKzfbSTe2eDc-26" target="9Dte4MXfXeRgDscpDeYK-14" edge="1">
          <mxGeometry relative="1" as="geometry">
            <mxPoint x="770" y="5263.692345252404" as="targetPoint" />
            <Array as="points">
              <mxPoint x="770" y="4265" />
            </Array>
          </mxGeometry>
        </mxCell>
        <mxCell id="9Dte4MXfXeRgDscpDeYK-11" value="&lt;font style=&quot;font-size: 30px;&quot;&gt;Controls Lighting 12V&lt;/font&gt;" style="edgeLabel;html=1;align=center;verticalAlign=middle;resizable=0;points=[];rotation=90;" parent="9Dte4MXfXeRgDscpDeYK-5" vertex="1" connectable="0">
          <mxGeometry x="0.333" y="3" relative="1" as="geometry">
            <mxPoint as="offset" />
          </mxGeometry>
        </mxCell>
        <mxCell id="9Dte4MXfXeRgDscpDeYK-3" style="edgeStyle=orthogonalEdgeStyle;rounded=0;orthogonalLoop=1;jettySize=auto;html=1;fillColor=#f8cecc;strokeColor=#FF0000;strokeWidth=6;" parent="1" source="HUb-4d5OrKzfbSTe2eDc-27" target="9Dte4MXfXeRgDscpDeYK-14" edge="1">
          <mxGeometry relative="1" as="geometry">
            <mxPoint x="730" y="5210" as="targetPoint" />
            <Array as="points">
              <mxPoint x="729.7383324593602" y="4330.285432098765" />
            </Array>
          </mxGeometry>
        </mxCell>
        <mxCell id="9Dte4MXfXeRgDscpDeYK-10" value="&lt;font style=&quot;font-size: 30px;&quot;&gt;Controls Leader 12V&lt;/font&gt;" style="edgeLabel;html=1;align=center;verticalAlign=middle;resizable=0;points=[];rotation=90;" parent="9Dte4MXfXeRgDscpDeYK-3" vertex="1" connectable="0">
          <mxGeometry x="0.2499" y="-1" relative="1" as="geometry">
            <mxPoint as="offset" />
          </mxGeometry>
        </mxCell>
        <mxCell id="9Dte4MXfXeRgDscpDeYK-6" style="edgeStyle=orthogonalEdgeStyle;rounded=0;orthogonalLoop=1;jettySize=auto;html=1;fillColor=#f8cecc;strokeColor=#FF0000;strokeWidth=6;entryX=0.695;entryY=0.001;entryDx=0;entryDy=0;entryPerimeter=0;" parent="1" source="HUb-4d5OrKzfbSTe2eDc-25" target="9Dte4MXfXeRgDscpDeYK-14" edge="1">
          <mxGeometry relative="1" as="geometry">
            <mxPoint x="810" y="5460.444607204861" as="targetPoint" />
            <Array as="points">
              <mxPoint x="830" y="4200" />
            </Array>
          </mxGeometry>
        </mxCell>
        <mxCell id="9Dte4MXfXeRgDscpDeYK-12" value="&lt;font style=&quot;font-size: 30px;&quot;&gt;Driver Fans 12V&lt;/font&gt;" style="edgeLabel;html=1;align=center;verticalAlign=middle;resizable=0;points=[];rotation=90;" parent="9Dte4MXfXeRgDscpDeYK-6" vertex="1" connectable="0">
          <mxGeometry x="0.3912" y="1" relative="1" as="geometry">
            <mxPoint as="offset" />
          </mxGeometry>
        </mxCell>
        <mxCell id="CWFAbjTiMu8Xap1x0-nx-19" value="" style="group;rotation=0;" parent="1" vertex="1" connectable="0">
          <mxGeometry x="-190" y="4629.97" width="1697.02" height="669.66" as="geometry" />
        </mxCell>
        <mxCell id="CWFAbjTiMu8Xap1x0-nx-20" value="" style="group;rotation=0;" parent="CWFAbjTiMu8Xap1x0-nx-19" vertex="1" connectable="0">
          <mxGeometry width="1697.02" height="669.66" as="geometry" />
        </mxCell>
        <mxCell id="CWFAbjTiMu8Xap1x0-nx-21" value="" style="group;rotation=0;" parent="CWFAbjTiMu8Xap1x0-nx-20" vertex="1" connectable="0">
          <mxGeometry width="1697.02" height="669.66" as="geometry" />
        </mxCell>
        <mxCell id="CWFAbjTiMu8Xap1x0-nx-23" value="" style="ellipse;whiteSpace=wrap;html=1;strokeColor=default;fillStyle=solid;fillColor=#FF6666;strokeWidth=3;recursiveResize=0;resizable=1;editable=1;movable=1;rotatable=1;deletable=1;locked=0;connectable=1;aspect=fixed;rotation=0;" parent="CWFAbjTiMu8Xap1x0-nx-21" vertex="1">
          <mxGeometry x="681.5394925116279" y="39.99710976960503" width="8.116871544121238" height="8.116871544121238" as="geometry" />
        </mxCell>
        <mxCell id="W5YhJnQ8mdu7sLbRSp4b-16" value="" style="group" parent="CWFAbjTiMu8Xap1x0-nx-21" vertex="1" connectable="0">
          <mxGeometry x="39.660319630434685" y="19.659680369565308" width="1657.3596803695652" height="615.3406392608694" as="geometry" />
        </mxCell>
        <mxCell id="CWFAbjTiMu8Xap1x0-nx-22" value="&lt;font style=&quot;&quot;&gt;&lt;span style=&quot;font-size: 40px;&quot;&gt;RTD Board&lt;br&gt;&lt;/span&gt;&lt;font style=&quot;font-size: 30px;&quot;&gt;75 mm x 100 mm&lt;/font&gt;&lt;br&gt;&lt;/font&gt;" style="rounded=1;whiteSpace=wrap;html=1;rotation=90;horizontal=0;arcSize=5;strokeWidth=6;movable=1;resizable=1;rotatable=1;deletable=1;editable=1;locked=0;connectable=1;container=1;" parent="W5YhJnQ8mdu7sLbRSp4b-16" vertex="1">
          <mxGeometry x="34.65968036956531" y="-34.65968036956531" width="615.3406392608694" height="684.66" as="geometry" />
        </mxCell>
        <mxCell id="W5YhJnQ8mdu7sLbRSp4b-1" value="&lt;font color=&quot;#f00000&quot;&gt;J3&lt;/font&gt;" style="rounded=1;whiteSpace=wrap;html=1;rotation=0;" parent="W5YhJnQ8mdu7sLbRSp4b-16" vertex="1">
          <mxGeometry x="30.339680369565315" y="486.3403196304347" width="120" height="60" as="geometry" />
        </mxCell>
        <mxCell id="W5YhJnQ8mdu7sLbRSp4b-2" value="&lt;font color=&quot;#2d7600&quot;&gt;J4&lt;/font&gt;" style="rounded=1;whiteSpace=wrap;html=1;rotation=0;" parent="W5YhJnQ8mdu7sLbRSp4b-16" vertex="1">
          <mxGeometry x="177.33968036956531" y="486.3403196304347" width="120" height="60" as="geometry" />
        </mxCell>
        <mxCell id="W5YhJnQ8mdu7sLbRSp4b-3" value="&lt;font color=&quot;#2d7600&quot;&gt;J5&lt;/font&gt;" style="rounded=1;whiteSpace=wrap;html=1;rotation=0;" parent="W5YhJnQ8mdu7sLbRSp4b-16" vertex="1">
          <mxGeometry x="322.3396803695653" y="486.3403196304347" width="120" height="60" as="geometry" />
        </mxCell>
        <mxCell id="W5YhJnQ8mdu7sLbRSp4b-4" value="" style="group;rotation=0;" parent="W5YhJnQ8mdu7sLbRSp4b-16" connectable="0" vertex="1">
          <mxGeometry x="506.3396803695653" y="452.3403196304347" width="120" height="90" as="geometry" />
        </mxCell>
        <mxCell id="W5YhJnQ8mdu7sLbRSp4b-5" value="J1" style="rounded=1;whiteSpace=wrap;html=1;rotation=0;" parent="W5YhJnQ8mdu7sLbRSp4b-4" vertex="1">
          <mxGeometry y="30" width="120" height="60" as="geometry" />
        </mxCell>
        <mxCell id="W5YhJnQ8mdu7sLbRSp4b-6" value="" style="group;rotation=0;" parent="W5YhJnQ8mdu7sLbRSp4b-16" connectable="0" vertex="1">
          <mxGeometry x="506.3396803695653" y="345.3403196304347" width="1151.02" height="90" as="geometry" />
        </mxCell>
        <mxCell id="W5YhJnQ8mdu7sLbRSp4b-7" value="J2" style="rounded=1;whiteSpace=wrap;html=1;rotation=0;" parent="W5YhJnQ8mdu7sLbRSp4b-6" vertex="1">
          <mxGeometry y="30" width="120" height="60" as="geometry" />
        </mxCell>
        <mxCell id="QXPMcDkFHSgx1Cq-TZ1a-3" value="&lt;font color=&quot;#f0021a&quot;&gt;PB&amp;nbsp; 6+&lt;/font&gt;" style="rounded=1;whiteSpace=wrap;html=1;" parent="W5YhJnQ8mdu7sLbRSp4b-6" vertex="1">
          <mxGeometry x="1036.02" y="-955.1200000000003" width="115" height="40" as="geometry" />
        </mxCell>
        <mxCell id="W5YhJnQ8mdu7sLbRSp4b-8" value="RTD7_J1" style="rounded=1;whiteSpace=wrap;html=1;rotation=0;" parent="W5YhJnQ8mdu7sLbRSp4b-16" vertex="1">
          <mxGeometry x="509.3396803695653" y="279.3403196304347" width="120" height="60" as="geometry" />
        </mxCell>
        <mxCell id="W5YhJnQ8mdu7sLbRSp4b-9" value="RTD5_J1" style="rounded=1;whiteSpace=wrap;html=1;rotation=0;" parent="W5YhJnQ8mdu7sLbRSp4b-16" vertex="1">
          <mxGeometry x="509.8396803695653" y="170.3403196304347" width="120" height="60" as="geometry" />
        </mxCell>
        <mxCell id="W5YhJnQ8mdu7sLbRSp4b-10" value="RTD3_J1" style="rounded=1;whiteSpace=wrap;html=1;rotation=0;" parent="W5YhJnQ8mdu7sLbRSp4b-16" vertex="1">
          <mxGeometry x="510.3396803695653" y="82.34031963043469" width="120" height="60" as="geometry" />
        </mxCell>
        <mxCell id="W5YhJnQ8mdu7sLbRSp4b-11" value="RTD2_J1" style="rounded=1;whiteSpace=wrap;html=1;rotation=0;" parent="W5YhJnQ8mdu7sLbRSp4b-16" vertex="1">
          <mxGeometry x="319.3396803695653" y="10.340319630434692" width="120" height="60" as="geometry" />
        </mxCell>
        <mxCell id="W5YhJnQ8mdu7sLbRSp4b-12" value="RTD1_J1" style="rounded=1;whiteSpace=wrap;html=1;rotation=0;" parent="W5YhJnQ8mdu7sLbRSp4b-16" vertex="1">
          <mxGeometry x="161.33968036956531" y="10.340319630434692" width="120" height="60" as="geometry" />
        </mxCell>
        <mxCell id="W5YhJnQ8mdu7sLbRSp4b-13" value="RTD0_J1" style="rounded=1;whiteSpace=wrap;html=1;rotation=0;" parent="W5YhJnQ8mdu7sLbRSp4b-16" vertex="1">
          <mxGeometry x="30.339680369565315" y="110.34031963043469" width="120" height="60" as="geometry" />
        </mxCell>
        <mxCell id="W5YhJnQ8mdu7sLbRSp4b-14" value="RTD4_J1" style="rounded=1;whiteSpace=wrap;html=1;rotation=0;" parent="W5YhJnQ8mdu7sLbRSp4b-16" vertex="1">
          <mxGeometry x="30.839680369565315" y="219.3403196304347" width="120" height="60" as="geometry" />
        </mxCell>
        <mxCell id="W5YhJnQ8mdu7sLbRSp4b-15" value="RTD6_J1" style="rounded=1;whiteSpace=wrap;html=1;rotation=0;" parent="W5YhJnQ8mdu7sLbRSp4b-16" vertex="1">
          <mxGeometry x="30.339680369565315" y="349.3403196304347" width="120" height="60" as="geometry" />
        </mxCell>
        <mxCell id="W5YhJnQ8mdu7sLbRSp4b-17" style="edgeStyle=orthogonalEdgeStyle;rounded=0;orthogonalLoop=1;jettySize=auto;html=1;entryX=0;entryY=0.5;entryDx=0;entryDy=0;fillColor=#f8cecc;strokeColor=#FF0000;strokeWidth=6;" parent="1" source="HUb-4d5OrKzfbSTe2eDc-20" target="W5YhJnQ8mdu7sLbRSp4b-1" edge="1">
          <mxGeometry relative="1" as="geometry">
            <Array as="points">
              <mxPoint x="-170" y="4400" />
              <mxPoint x="-170" y="5166" />
            </Array>
          </mxGeometry>
        </mxCell>
        <mxCell id="W5YhJnQ8mdu7sLbRSp4b-19" value="&lt;font style=&quot;font-size: 30px;&quot;&gt;RTD 12V&lt;/font&gt;" style="edgeLabel;html=1;align=center;verticalAlign=middle;resizable=0;points=[];" parent="W5YhJnQ8mdu7sLbRSp4b-17" vertex="1" connectable="0">
          <mxGeometry x="-0.6685" y="7" relative="1" as="geometry">
            <mxPoint x="-32" y="-6" as="offset" />
          </mxGeometry>
        </mxCell>
        <mxCell id="lcz1YiiRIOjrepNpbd1l-9" style="edgeStyle=orthogonalEdgeStyle;rounded=0;orthogonalLoop=1;jettySize=auto;html=1;entryX=1;entryY=0.5;entryDx=0;entryDy=0;fillColor=#f8cecc;strokeColor=#FF0000;strokeWidth=20;" parent="1" source="lcz1YiiRIOjrepNpbd1l-4" target="vC42W1dHfUrLGCSOYuyR-57" edge="1">
          <mxGeometry relative="1" as="geometry">
            <Array as="points">
              <mxPoint x="3400" y="4802" />
              <mxPoint x="3400" y="4960" />
              <mxPoint x="2310" y="4960" />
              <mxPoint x="2310" y="4890" />
            </Array>
          </mxGeometry>
        </mxCell>
        <mxCell id="lcz1YiiRIOjrepNpbd1l-12" value="&lt;font style=&quot;font-size: 50px;&quot;&gt;ARR HV +&lt;/font&gt;" style="edgeLabel;html=1;align=center;verticalAlign=middle;resizable=0;points=[];" parent="lcz1YiiRIOjrepNpbd1l-9" vertex="1" connectable="0">
          <mxGeometry x="-0.3393" y="2" relative="1" as="geometry">
            <mxPoint as="offset" />
          </mxGeometry>
        </mxCell>
        <mxCell id="lcz1YiiRIOjrepNpbd1l-4" value="&lt;font style=&quot;font-size: 40px;&quot;&gt;Subarray C&lt;/font&gt;" style="rounded=0;whiteSpace=wrap;html=1;" parent="1" vertex="1">
          <mxGeometry x="4520" y="4657.09" width="460" height="290" as="geometry" />
        </mxCell>
        <mxCell id="lcz1YiiRIOjrepNpbd1l-8" style="edgeStyle=orthogonalEdgeStyle;rounded=0;orthogonalLoop=1;jettySize=auto;html=1;exitX=0;exitY=0.5;exitDx=0;exitDy=0;entryX=1;entryY=0.5;entryDx=0;entryDy=0;fillColor=#f8cecc;strokeColor=#FF0000;strokeWidth=20;" parent="1" source="lcz1YiiRIOjrepNpbd1l-5" target="vC42W1dHfUrLGCSOYuyR-35" edge="1">
          <mxGeometry relative="1" as="geometry">
            <Array as="points">
              <mxPoint x="3170" y="4485" />
              <mxPoint x="3170" y="4580" />
              <mxPoint x="2300" y="4580" />
              <mxPoint x="2300" y="4470" />
            </Array>
          </mxGeometry>
        </mxCell>
        <mxCell id="lcz1YiiRIOjrepNpbd1l-11" value="&lt;font style=&quot;font-size: 50px;&quot;&gt;ARR HV +&lt;/font&gt;" style="edgeLabel;html=1;align=center;verticalAlign=middle;resizable=0;points=[];" parent="lcz1YiiRIOjrepNpbd1l-8" vertex="1" connectable="0">
          <mxGeometry x="-0.3489" y="1" relative="1" as="geometry">
            <mxPoint x="-1" as="offset" />
          </mxGeometry>
        </mxCell>
        <mxCell id="lcz1YiiRIOjrepNpbd1l-5" value="&lt;font style=&quot;font-size: 40px;&quot;&gt;Subarray B&lt;/font&gt;" style="rounded=0;whiteSpace=wrap;html=1;" parent="1" vertex="1">
          <mxGeometry x="4520" y="4340" width="460" height="290" as="geometry" />
        </mxCell>
        <mxCell id="lcz1YiiRIOjrepNpbd1l-7" style="edgeStyle=orthogonalEdgeStyle;rounded=0;orthogonalLoop=1;jettySize=auto;html=1;entryX=1;entryY=0.75;entryDx=0;entryDy=0;fillColor=#f8cecc;strokeColor=#FF0000;strokeWidth=20;" parent="1" source="lcz1YiiRIOjrepNpbd1l-6" target="vC42W1dHfUrLGCSOYuyR-11" edge="1">
          <mxGeometry relative="1" as="geometry">
            <Array as="points">
              <mxPoint x="2290" y="3920" />
              <mxPoint x="2290" y="4045" />
            </Array>
          </mxGeometry>
        </mxCell>
        <mxCell id="lcz1YiiRIOjrepNpbd1l-10" value="&lt;font style=&quot;font-size: 50px;&quot;&gt;ARR HV+&lt;/font&gt;" style="edgeLabel;html=1;align=center;verticalAlign=middle;resizable=0;points=[];" parent="lcz1YiiRIOjrepNpbd1l-7" vertex="1" connectable="0">
          <mxGeometry x="-0.4212" y="10" relative="1" as="geometry">
            <mxPoint x="-1" y="-10" as="offset" />
          </mxGeometry>
        </mxCell>
        <mxCell id="lcz1YiiRIOjrepNpbd1l-6" value="&lt;font style=&quot;font-size: 40px;&quot;&gt;Subarray A&lt;/font&gt;" style="rounded=0;whiteSpace=wrap;html=1;" parent="1" vertex="1">
          <mxGeometry x="4520" y="3970" width="460" height="290" as="geometry" />
        </mxCell>
        <mxCell id="lcz1YiiRIOjrepNpbd1l-13" value="&lt;font style=&quot;font-size: 40px;&quot;&gt;Motor Controller&lt;/font&gt;" style="rounded=0;whiteSpace=wrap;html=1;" parent="1" vertex="1">
          <mxGeometry x="3850" y="4105.77" width="460" height="290" as="geometry" />
        </mxCell>
        <mxCell id="lcz1YiiRIOjrepNpbd1l-18" style="edgeStyle=orthogonalEdgeStyle;rounded=0;orthogonalLoop=1;jettySize=auto;html=1;entryX=0;entryY=0.5;entryDx=0;entryDy=0;fillColor=#fff2cc;strokeColor=#d6b656;strokeWidth=6;" parent="1" source="lcz1YiiRIOjrepNpbd1l-14" target="W5YhJnQ8mdu7sLbRSp4b-8" edge="1">
          <mxGeometry relative="1" as="geometry">
            <Array as="points">
              <mxPoint x="-50" y="5665" />
              <mxPoint x="310" y="5665" />
              <mxPoint x="310" y="4959" />
            </Array>
          </mxGeometry>
        </mxCell>
        <mxCell id="lcz1YiiRIOjrepNpbd1l-19" style="edgeStyle=orthogonalEdgeStyle;rounded=0;orthogonalLoop=1;jettySize=auto;html=1;entryX=0;entryY=0.5;entryDx=0;entryDy=0;fillColor=#fff2cc;strokeColor=#d6b656;strokeWidth=6;" parent="1" source="lcz1YiiRIOjrepNpbd1l-14" target="W5YhJnQ8mdu7sLbRSp4b-9" edge="1">
          <mxGeometry relative="1" as="geometry">
            <Array as="points">
              <mxPoint x="-50" y="5665" />
              <mxPoint x="310" y="5665" />
              <mxPoint x="310" y="4850" />
            </Array>
          </mxGeometry>
        </mxCell>
        <mxCell id="lcz1YiiRIOjrepNpbd1l-20" style="edgeStyle=orthogonalEdgeStyle;rounded=0;orthogonalLoop=1;jettySize=auto;html=1;entryX=0;entryY=0.5;entryDx=0;entryDy=0;fillColor=#fff2cc;strokeColor=#d6b656;strokeWidth=6;" parent="1" source="lcz1YiiRIOjrepNpbd1l-14" target="W5YhJnQ8mdu7sLbRSp4b-10" edge="1">
          <mxGeometry relative="1" as="geometry">
            <Array as="points">
              <mxPoint x="-50" y="5665" />
              <mxPoint x="310" y="5665" />
              <mxPoint x="310" y="4762" />
            </Array>
          </mxGeometry>
        </mxCell>
        <mxCell id="lcz1YiiRIOjrepNpbd1l-14" value="&lt;font style=&quot;font-size: 40px;&quot;&gt;Subarray C&lt;/font&gt;" style="rounded=0;whiteSpace=wrap;html=1;" parent="1" vertex="1">
          <mxGeometry x="-280" y="5880" width="460" height="290" as="geometry" />
        </mxCell>
        <mxCell id="lcz1YiiRIOjrepNpbd1l-21" style="edgeStyle=orthogonalEdgeStyle;rounded=0;orthogonalLoop=1;jettySize=auto;html=1;entryX=0.5;entryY=1;entryDx=0;entryDy=0;fillColor=#fff2cc;strokeColor=#d6b656;strokeWidth=6;" parent="1" source="lcz1YiiRIOjrepNpbd1l-15" target="W5YhJnQ8mdu7sLbRSp4b-12" edge="1">
          <mxGeometry relative="1" as="geometry">
            <Array as="points">
              <mxPoint x="-580" y="5450" />
              <mxPoint x="170" y="5450" />
              <mxPoint x="170" y="4750" />
              <mxPoint x="71" y="4750" />
            </Array>
          </mxGeometry>
        </mxCell>
        <mxCell id="lcz1YiiRIOjrepNpbd1l-22" style="edgeStyle=orthogonalEdgeStyle;rounded=0;orthogonalLoop=1;jettySize=auto;html=1;entryX=0.5;entryY=1;entryDx=0;entryDy=0;fillColor=#fff2cc;strokeColor=#d6b656;strokeWidth=6;" parent="1" source="lcz1YiiRIOjrepNpbd1l-15" target="W5YhJnQ8mdu7sLbRSp4b-11" edge="1">
          <mxGeometry relative="1" as="geometry">
            <Array as="points">
              <mxPoint x="-580" y="5450" />
              <mxPoint x="170" y="5450" />
              <mxPoint x="170" y="4750" />
              <mxPoint x="229" y="4750" />
            </Array>
          </mxGeometry>
        </mxCell>
        <mxCell id="lcz1YiiRIOjrepNpbd1l-15" value="&lt;font style=&quot;font-size: 40px;&quot;&gt;Subarray B&lt;/font&gt;" style="rounded=0;whiteSpace=wrap;html=1;" parent="1" vertex="1">
          <mxGeometry x="-810" y="5880" width="460" height="290" as="geometry" />
        </mxCell>
        <mxCell id="lcz1YiiRIOjrepNpbd1l-23" style="edgeStyle=orthogonalEdgeStyle;rounded=0;orthogonalLoop=1;jettySize=auto;html=1;entryX=0;entryY=0.5;entryDx=0;entryDy=0;fillColor=#fff2cc;strokeColor=#d6b656;strokeWidth=6;" parent="1" source="lcz1YiiRIOjrepNpbd1l-16" target="W5YhJnQ8mdu7sLbRSp4b-13" edge="1">
          <mxGeometry relative="1" as="geometry">
            <Array as="points">
              <mxPoint x="-1120" y="4790" />
            </Array>
          </mxGeometry>
        </mxCell>
        <mxCell id="lcz1YiiRIOjrepNpbd1l-24" style="edgeStyle=orthogonalEdgeStyle;rounded=0;orthogonalLoop=1;jettySize=auto;html=1;entryX=0;entryY=0.5;entryDx=0;entryDy=0;fillColor=#fff2cc;strokeColor=#d6b656;strokeWidth=6;" parent="1" source="lcz1YiiRIOjrepNpbd1l-16" target="W5YhJnQ8mdu7sLbRSp4b-14" edge="1">
          <mxGeometry relative="1" as="geometry">
            <Array as="points">
              <mxPoint x="-1120" y="4899" />
            </Array>
          </mxGeometry>
        </mxCell>
        <mxCell id="lcz1YiiRIOjrepNpbd1l-25" style="edgeStyle=orthogonalEdgeStyle;rounded=0;orthogonalLoop=1;jettySize=auto;html=1;entryX=0;entryY=0.5;entryDx=0;entryDy=0;fillColor=#fff2cc;strokeColor=#d6b656;strokeWidth=6;" parent="1" source="lcz1YiiRIOjrepNpbd1l-16" target="W5YhJnQ8mdu7sLbRSp4b-15" edge="1">
          <mxGeometry relative="1" as="geometry">
            <Array as="points">
              <mxPoint x="-1120" y="5029" />
            </Array>
          </mxGeometry>
        </mxCell>
        <mxCell id="lcz1YiiRIOjrepNpbd1l-16" value="&lt;font style=&quot;font-size: 40px;&quot;&gt;Subarray A&lt;/font&gt;" style="rounded=0;whiteSpace=wrap;html=1;" parent="1" vertex="1">
          <mxGeometry x="-1340" y="5880" width="460" height="290" as="geometry" />
        </mxCell>
        <mxCell id="lcz1YiiRIOjrepNpbd1l-26" value="" style="group;rotation=0;" parent="1" vertex="1" connectable="0">
          <mxGeometry x="26.999999999999922" y="3310.15" width="630.9142077545552" height="559.8499999999999" as="geometry" />
        </mxCell>
        <mxCell id="lcz1YiiRIOjrepNpbd1l-27" value="" style="group;rotation=0;" parent="lcz1YiiRIOjrepNpbd1l-26" vertex="1" connectable="0">
          <mxGeometry width="630.9142077545552" height="559.8499999999999" as="geometry" />
        </mxCell>
        <mxCell id="lcz1YiiRIOjrepNpbd1l-28" value="" style="group;rotation=0;" parent="lcz1YiiRIOjrepNpbd1l-27" vertex="1" connectable="0">
          <mxGeometry width="630" height="559.85" as="geometry" />
        </mxCell>
        <mxCell id="lcz1YiiRIOjrepNpbd1l-29" value="&lt;font style=&quot;&quot;&gt;&lt;font style=&quot;font-size: 40px;&quot;&gt;Telemetry Board&lt;br&gt;&lt;/font&gt;&lt;font style=&quot;font-size: 30px;&quot;&gt;95 mm x 82 mm&lt;/font&gt;&lt;br&gt;&lt;/font&gt;" style="rounded=1;whiteSpace=wrap;html=1;rotation=90;horizontal=0;arcSize=5;strokeWidth=6;movable=1;resizable=1;rotatable=1;deletable=1;editable=1;locked=0;connectable=1;container=1;" parent="lcz1YiiRIOjrepNpbd1l-28" vertex="1">
          <mxGeometry x="160" y="-80" width="435.68000000000006" height="589.3274252994603" as="geometry" />
        </mxCell>
        <mxCell id="lcz1YiiRIOjrepNpbd1l-44" value="" style="group;rotation=0;" parent="lcz1YiiRIOjrepNpbd1l-29" connectable="0" vertex="1">
          <mxGeometry x="75.68000000000006" y="84.84999999999991" width="120" height="90" as="geometry" />
        </mxCell>
        <mxCell id="lcz1YiiRIOjrepNpbd1l-45" value="&lt;font color=&quot;#2d7600&quot;&gt;J12&lt;/font&gt;" style="rounded=1;whiteSpace=wrap;html=1;rotation=0;" parent="lcz1YiiRIOjrepNpbd1l-44" vertex="1">
          <mxGeometry y="30" width="120" height="60" as="geometry" />
        </mxCell>
        <mxCell id="lcz1YiiRIOjrepNpbd1l-46" value="CAN_Out" style="text;html=1;strokeColor=none;fillColor=none;align=center;verticalAlign=middle;whiteSpace=wrap;rounded=0;rotation=0;" parent="lcz1YiiRIOjrepNpbd1l-44" vertex="1">
          <mxGeometry x="30" width="60" height="30" as="geometry" />
        </mxCell>
        <mxCell id="lcz1YiiRIOjrepNpbd1l-47" value="" style="group;rotation=0;" parent="lcz1YiiRIOjrepNpbd1l-29" connectable="0" vertex="1">
          <mxGeometry x="-54.319999999999936" y="84.84999999999991" width="120" height="90" as="geometry" />
        </mxCell>
        <mxCell id="lcz1YiiRIOjrepNpbd1l-48" value="&lt;font color=&quot;#2d7600&quot;&gt;J11&lt;/font&gt;" style="rounded=1;whiteSpace=wrap;html=1;rotation=0;" parent="lcz1YiiRIOjrepNpbd1l-47" vertex="1">
          <mxGeometry y="30" width="120" height="60" as="geometry" />
        </mxCell>
        <mxCell id="lcz1YiiRIOjrepNpbd1l-49" value="CAN_In" style="text;html=1;strokeColor=none;fillColor=none;align=center;verticalAlign=middle;whiteSpace=wrap;rounded=0;rotation=0;" parent="lcz1YiiRIOjrepNpbd1l-47" vertex="1">
          <mxGeometry x="30" width="60" height="30" as="geometry" />
        </mxCell>
        <mxCell id="lcz1YiiRIOjrepNpbd1l-54" value="&lt;font color=&quot;#f0072e&quot;&gt;J7&lt;/font&gt;" style="rounded=1;whiteSpace=wrap;html=1;rotation=0;" parent="lcz1YiiRIOjrepNpbd1l-29" vertex="1">
          <mxGeometry x="-54.319999999999936" y="264.8499999999999" width="110" height="40" as="geometry" />
        </mxCell>
        <mxCell id="lcz1YiiRIOjrepNpbd1l-55" value="PowerConn" style="text;html=1;strokeColor=none;fillColor=none;align=center;verticalAlign=middle;whiteSpace=wrap;rounded=0;rotation=0;" parent="lcz1YiiRIOjrepNpbd1l-29" vertex="1">
          <mxGeometry x="-26.319999999999936" y="244.8499999999999" width="55" height="20" as="geometry" />
        </mxCell>
        <mxCell id="lcz1YiiRIOjrepNpbd1l-50" value="" style="group;rotation=0;" parent="lcz1YiiRIOjrepNpbd1l-29" connectable="0" vertex="1">
          <mxGeometry x="-54.319999999999936" y="404.8499999999999" width="120" height="90" as="geometry" />
        </mxCell>
        <mxCell id="lcz1YiiRIOjrepNpbd1l-51" value="&lt;font color=&quot;#6c8ebf&quot;&gt;J8&lt;/font&gt;" style="rounded=1;whiteSpace=wrap;html=1;rotation=0;" parent="lcz1YiiRIOjrepNpbd1l-50" vertex="1">
          <mxGeometry y="30" width="120" height="60" as="geometry" />
        </mxCell>
        <mxCell id="lcz1YiiRIOjrepNpbd1l-52" value="Ethernet" style="text;html=1;strokeColor=none;fillColor=none;align=center;verticalAlign=middle;whiteSpace=wrap;rounded=0;rotation=0;" parent="lcz1YiiRIOjrepNpbd1l-50" vertex="1">
          <mxGeometry x="30" width="60" height="30" as="geometry" />
        </mxCell>
        <mxCell id="K_bjfXk6rJVCR5t5mQfk-3" style="edgeStyle=orthogonalEdgeStyle;rounded=0;orthogonalLoop=1;jettySize=auto;html=1;entryX=0.5;entryY=1;entryDx=0;entryDy=0;strokeWidth=6;strokeColor=#2D7600;" parent="1" source="lcz1YiiRIOjrepNpbd1l-58" target="WOc30SIgsXHmv4fvjYI6-5" edge="1">
          <mxGeometry relative="1" as="geometry">
            <Array as="points">
              <mxPoint x="-2760" y="2315" />
              <mxPoint x="-2760" y="3630" />
              <mxPoint x="-2240" y="3630" />
            </Array>
          </mxGeometry>
        </mxCell>
        <mxCell id="K_bjfXk6rJVCR5t5mQfk-29" value="&lt;font style=&quot;font-size: 30px;&quot;&gt;Car CAN&lt;/font&gt;" style="edgeLabel;html=1;align=center;verticalAlign=middle;resizable=0;points=[];" parent="K_bjfXk6rJVCR5t5mQfk-3" vertex="1" connectable="0">
          <mxGeometry x="-0.2213" y="5" relative="1" as="geometry">
            <mxPoint x="-2" as="offset" />
          </mxGeometry>
        </mxCell>
        <mxCell id="lcz1YiiRIOjrepNpbd1l-58" value="&lt;span style=&quot;font-size: 40px;&quot;&gt;Battery Box&lt;/span&gt;" style="rounded=0;whiteSpace=wrap;html=1;" parent="1" vertex="1">
          <mxGeometry x="750" y="2120" width="720" height="390" as="geometry" />
        </mxCell>
        <mxCell id="lcz1YiiRIOjrepNpbd1l-63" style="edgeStyle=orthogonalEdgeStyle;rounded=0;orthogonalLoop=1;jettySize=auto;html=1;entryX=1;entryY=1;entryDx=0;entryDy=0;fillColor=#f8cecc;strokeColor=#FF0000;strokeWidth=6;" parent="1" source="HUb-4d5OrKzfbSTe2eDc-15" target="lcz1YiiRIOjrepNpbd1l-54" edge="1">
          <mxGeometry relative="1" as="geometry">
            <Array as="points">
              <mxPoint x="290" y="4060" />
              <mxPoint x="290" y="3535" />
            </Array>
          </mxGeometry>
        </mxCell>
        <mxCell id="lcz1YiiRIOjrepNpbd1l-64" value="&lt;font style=&quot;font-size: 30px;&quot;&gt;Telemetry 12V&lt;/font&gt;" style="edgeLabel;html=1;align=center;verticalAlign=middle;resizable=0;points=[];" parent="lcz1YiiRIOjrepNpbd1l-63" vertex="1" connectable="0">
          <mxGeometry x="0.5837" y="-2" relative="1" as="geometry">
            <mxPoint x="28" y="-6" as="offset" />
          </mxGeometry>
        </mxCell>
        <mxCell id="lcz1YiiRIOjrepNpbd1l-65" value="&lt;span style=&quot;font-size: 40px;&quot;&gt;Radio&lt;/span&gt;" style="rounded=0;whiteSpace=wrap;html=1;" parent="1" vertex="1">
          <mxGeometry x="-19.090000000000003" y="2400" width="270" height="120" as="geometry" />
        </mxCell>
        <mxCell id="lcz1YiiRIOjrepNpbd1l-66" style="edgeStyle=orthogonalEdgeStyle;rounded=0;orthogonalLoop=1;jettySize=auto;html=1;fillColor=#dae8fc;strokeColor=#6C8EBF;strokeWidth=6;" parent="1" source="lcz1YiiRIOjrepNpbd1l-51" target="lcz1YiiRIOjrepNpbd1l-65" edge="1">
          <mxGeometry relative="1" as="geometry">
            <Array as="points">
              <mxPoint x="100" y="3695" />
            </Array>
          </mxGeometry>
        </mxCell>
        <mxCell id="lcz1YiiRIOjrepNpbd1l-67" value="&lt;font style=&quot;font-size: 30px;&quot;&gt;Radio Ethernet&lt;/font&gt;" style="edgeLabel;html=1;align=center;verticalAlign=middle;resizable=0;points=[];" parent="lcz1YiiRIOjrepNpbd1l-66" vertex="1" connectable="0">
          <mxGeometry x="0.5554" y="3" relative="1" as="geometry">
            <mxPoint x="36" y="1" as="offset" />
          </mxGeometry>
        </mxCell>
        <mxCell id="lcz1YiiRIOjrepNpbd1l-68" style="edgeStyle=orthogonalEdgeStyle;rounded=0;orthogonalLoop=1;jettySize=auto;html=1;strokeWidth=6;fillColor=#f8cecc;strokeColor=#FF0000;" parent="1" source="HUb-4d5OrKzfbSTe2eDc-16" target="lcz1YiiRIOjrepNpbd1l-65" edge="1">
          <mxGeometry relative="1" as="geometry">
            <Array as="points">
              <mxPoint x="20" y="4130" />
            </Array>
          </mxGeometry>
        </mxCell>
        <mxCell id="lcz1YiiRIOjrepNpbd1l-69" value="&lt;font style=&quot;font-size: 30px;&quot;&gt;Radio 12V&lt;/font&gt;" style="edgeLabel;html=1;align=center;verticalAlign=middle;resizable=0;points=[];" parent="lcz1YiiRIOjrepNpbd1l-68" vertex="1" connectable="0">
          <mxGeometry x="0.9008" y="1" relative="1" as="geometry">
            <mxPoint as="offset" />
          </mxGeometry>
        </mxCell>
        <mxCell id="Hupmukxp_Hz9lae3J-nx-11" style="edgeStyle=orthogonalEdgeStyle;rounded=0;orthogonalLoop=1;jettySize=auto;html=1;fillColor=#f8cecc;strokeColor=#FF0000;strokeWidth=6;entryX=0.224;entryY=1.003;entryDx=0;entryDy=0;entryPerimeter=0;" parent="1" source="WckYQV1ajARv2_VfDTGR-2" target="lcz1YiiRIOjrepNpbd1l-58" edge="1">
          <mxGeometry relative="1" as="geometry">
            <mxPoint x="910" y="3270" as="targetPoint" />
            <Array as="points">
              <mxPoint x="909.8594651284741" y="4216.16049382716" />
              <mxPoint x="909.8594651284741" y="3499.1604938271603" />
            </Array>
          </mxGeometry>
        </mxCell>
        <mxCell id="Hupmukxp_Hz9lae3J-nx-12" value="&lt;font style=&quot;font-size: 30px;&quot;&gt;BPS Leader 12V&lt;/font&gt;" style="edgeLabel;html=1;align=center;verticalAlign=middle;resizable=0;points=[];" parent="Hupmukxp_Hz9lae3J-nx-11" vertex="1" connectable="0">
          <mxGeometry x="0.6917" y="2" relative="1" as="geometry">
            <mxPoint y="-1" as="offset" />
          </mxGeometry>
        </mxCell>
        <mxCell id="TfxBdB3RcfE0gURxi1Lm-1" value="" style="group;rotation=0;" parent="1" vertex="1" connectable="0">
          <mxGeometry x="937.09" y="5150" width="630.9142077545552" height="559.8499999999999" as="geometry" />
        </mxCell>
        <mxCell id="TfxBdB3RcfE0gURxi1Lm-2" value="" style="group;rotation=0;" parent="TfxBdB3RcfE0gURxi1Lm-1" vertex="1" connectable="0">
          <mxGeometry width="630.9142077545552" height="559.8499999999999" as="geometry" />
        </mxCell>
        <mxCell id="TfxBdB3RcfE0gURxi1Lm-3" value="" style="group;rotation=0;" parent="TfxBdB3RcfE0gURxi1Lm-2" vertex="1" connectable="0">
          <mxGeometry width="630" height="559.85" as="geometry" />
        </mxCell>
        <mxCell id="TfxBdB3RcfE0gURxi1Lm-4" value="&lt;font style=&quot;&quot;&gt;&lt;span style=&quot;font-size: 40px;&quot;&gt;Horn Board&lt;/span&gt;&lt;br&gt;&lt;/font&gt;" style="rounded=1;whiteSpace=wrap;html=1;rotation=90;horizontal=0;arcSize=5;strokeWidth=6;movable=1;resizable=1;rotatable=1;deletable=1;editable=1;locked=0;connectable=1;container=1;" parent="TfxBdB3RcfE0gURxi1Lm-3" vertex="1">
          <mxGeometry x="160" y="-80" width="450" height="589.3274252994603" as="geometry" />
        </mxCell>
        <mxCell id="TfxBdB3RcfE0gURxi1Lm-25" value="" style="group;rotation=0;" parent="TfxBdB3RcfE0gURxi1Lm-4" connectable="0" vertex="1">
          <mxGeometry x="330" y="362" width="120" height="90" as="geometry" />
        </mxCell>
        <mxCell id="TfxBdB3RcfE0gURxi1Lm-26" value="DC+" style="rounded=1;whiteSpace=wrap;html=1;rotation=0;" parent="TfxBdB3RcfE0gURxi1Lm-25" vertex="1">
          <mxGeometry x="40" y="30" width="120" height="60" as="geometry" />
        </mxCell>
        <mxCell id="TfxBdB3RcfE0gURxi1Lm-20" value="IN" style="rounded=1;whiteSpace=wrap;html=1;rotation=0;" parent="TfxBdB3RcfE0gURxi1Lm-4" vertex="1">
          <mxGeometry x="376" y="162" width="120" height="60" as="geometry" />
        </mxCell>
        <mxCell id="TfxBdB3RcfE0gURxi1Lm-29" value="COM" style="rounded=1;whiteSpace=wrap;html=1;rotation=0;" parent="TfxBdB3RcfE0gURxi1Lm-4" vertex="1">
          <mxGeometry x="-40" y="279.65999999999985" width="120" height="60" as="geometry" />
        </mxCell>
        <mxCell id="TfxBdB3RcfE0gURxi1Lm-31" value="NC" style="rounded=1;whiteSpace=wrap;html=1;rotation=0;" parent="TfxBdB3RcfE0gURxi1Lm-4" vertex="1">
          <mxGeometry x="-40" y="401.6099999999997" width="120" height="60" as="geometry" />
        </mxCell>
        <mxCell id="TfxBdB3RcfE0gURxi1Lm-33" value="NO" style="rounded=1;whiteSpace=wrap;html=1;rotation=0;" parent="TfxBdB3RcfE0gURxi1Lm-4" vertex="1">
          <mxGeometry x="-40" y="162" width="120" height="60" as="geometry" />
        </mxCell>
        <mxCell id="TfxBdB3RcfE0gURxi1Lm-22" value="" style="group;rotation=0;" parent="TfxBdB3RcfE0gURxi1Lm-3" connectable="0" vertex="1">
          <mxGeometry x="535" y="169.65999999999985" width="120" height="90" as="geometry" />
        </mxCell>
        <mxCell id="TfxBdB3RcfE0gURxi1Lm-23" value="DC-" style="rounded=1;whiteSpace=wrap;html=1;rotation=0;" parent="TfxBdB3RcfE0gURxi1Lm-22" vertex="1">
          <mxGeometry y="30" width="120" height="60" as="geometry" />
        </mxCell>
        <mxCell id="9Dte4MXfXeRgDscpDeYK-7" style="edgeStyle=orthogonalEdgeStyle;rounded=0;orthogonalLoop=1;jettySize=auto;html=1;fillColor=#f8cecc;strokeColor=#FF0000;strokeWidth=6;entryX=0.5;entryY=1;entryDx=0;entryDy=0;" parent="1" source="HUb-4d5OrKzfbSTe2eDc-24" target="TfxBdB3RcfE0gURxi1Lm-26" edge="1">
          <mxGeometry relative="1" as="geometry">
            <mxPoint x="880" y="4980" as="targetPoint" />
            <Array as="points">
              <mxPoint x="870" y="4130" />
              <mxPoint x="870" y="4980" />
              <mxPoint x="960" y="4980" />
              <mxPoint x="960" y="5640" />
              <mxPoint x="1527" y="5640" />
            </Array>
          </mxGeometry>
        </mxCell>
        <mxCell id="9Dte4MXfXeRgDscpDeYK-13" value="&lt;font style=&quot;font-size: 30px;&quot;&gt;Horn 12V&lt;/font&gt;" style="edgeLabel;html=1;align=center;verticalAlign=middle;resizable=0;points=[];rotation=0;" parent="9Dte4MXfXeRgDscpDeYK-7" vertex="1" connectable="0">
          <mxGeometry x="0.4439" y="3" relative="1" as="geometry">
            <mxPoint x="117" as="offset" />
          </mxGeometry>
        </mxCell>
        <mxCell id="z7uHdxLq1DYWrT7IQocr-2" value="&lt;font style=&quot;font-size: 60px;&quot;&gt;Electronics Enclosure&amp;nbsp;&lt;/font&gt;" style="text;html=1;strokeColor=none;fillColor=none;align=center;verticalAlign=middle;whiteSpace=wrap;rounded=0;" parent="1" vertex="1">
          <mxGeometry x="-970" y="2760" width="40" height="30" as="geometry" />
        </mxCell>
        <mxCell id="QXPMcDkFHSgx1Cq-TZ1a-1" value="&lt;font color=&quot;#f0021a&quot;&gt;PB&amp;nbsp; 6+&lt;/font&gt;" style="rounded=1;whiteSpace=wrap;html=1;" parent="1" vertex="1">
          <mxGeometry x="1250" y="4246" width="115" height="40" as="geometry" />
        </mxCell>
        <mxCell id="QXPMcDkFHSgx1Cq-TZ1a-2" value="" style="edgeStyle=orthogonalEdgeStyle;rounded=0;orthogonalLoop=1;jettySize=auto;html=1;" parent="1" source="WckYQV1ajARv2_VfDTGR-6" target="QXPMcDkFHSgx1Cq-TZ1a-1" edge="1">
          <mxGeometry relative="1" as="geometry" />
        </mxCell>
        <mxCell id="K_bjfXk6rJVCR5t5mQfk-2" style="edgeStyle=orthogonalEdgeStyle;rounded=0;orthogonalLoop=1;jettySize=auto;html=1;entryX=0;entryY=0.5;entryDx=0;entryDy=0;strokeWidth=6;" parent="1" source="mzfrpFoBvAI-fzSK0R1V-1" target="WOc30SIgsXHmv4fvjYI6-2" edge="1">
          <mxGeometry relative="1" as="geometry">
            <Array as="points">
              <mxPoint x="-494" y="3110" />
              <mxPoint x="-2026" y="3110" />
            </Array>
          </mxGeometry>
        </mxCell>
        <mxCell id="K_bjfXk6rJVCR5t5mQfk-4" style="edgeStyle=orthogonalEdgeStyle;rounded=0;orthogonalLoop=1;jettySize=auto;html=1;entryX=0;entryY=0.5;entryDx=0;entryDy=0;strokeWidth=6;strokeColor=#2D7600;" parent="1" source="WOc30SIgsXHmv4fvjYI6-8" target="lcz1YiiRIOjrepNpbd1l-48" edge="1">
          <mxGeometry relative="1" as="geometry" />
        </mxCell>
        <mxCell id="K_bjfXk6rJVCR5t5mQfk-5" style="edgeStyle=orthogonalEdgeStyle;rounded=0;orthogonalLoop=1;jettySize=auto;html=1;entryX=0;entryY=0.5;entryDx=0;entryDy=0;strokeColor=#2D7600;strokeWidth=6;" parent="1" source="lcz1YiiRIOjrepNpbd1l-45" target="vC42W1dHfUrLGCSOYuyR-14" edge="1">
          <mxGeometry relative="1" as="geometry">
            <Array as="points">
              <mxPoint x="1440" y="3375" />
              <mxPoint x="1440" y="4020" />
              <mxPoint x="1570" y="4020" />
            </Array>
          </mxGeometry>
        </mxCell>
        <mxCell id="K_bjfXk6rJVCR5t5mQfk-6" style="edgeStyle=orthogonalEdgeStyle;rounded=0;orthogonalLoop=1;jettySize=auto;html=1;entryX=1;entryY=0.5;entryDx=0;entryDy=0;strokeWidth=6;strokeColor=#2D7600;" parent="1" source="vC42W1dHfUrLGCSOYuyR-2" target="vC42W1dHfUrLGCSOYuyR-38" edge="1">
          <mxGeometry relative="1" as="geometry">
            <Array as="points">
              <mxPoint x="1720" y="3930" />
              <mxPoint x="1720" y="4470" />
            </Array>
          </mxGeometry>
        </mxCell>
        <mxCell id="K_bjfXk6rJVCR5t5mQfk-7" style="edgeStyle=orthogonalEdgeStyle;rounded=0;orthogonalLoop=1;jettySize=auto;html=1;entryX=0;entryY=0.5;entryDx=0;entryDy=0;strokeWidth=6;strokeColor=#2D7600;" parent="1" source="vC42W1dHfUrLGCSOYuyR-26" target="vC42W1dHfUrLGCSOYuyR-60" edge="1">
          <mxGeometry relative="1" as="geometry">
            <Array as="points">
              <mxPoint x="1540" y="4370" />
              <mxPoint x="1540" y="4890" />
            </Array>
          </mxGeometry>
        </mxCell>
        <mxCell id="K_bjfXk6rJVCR5t5mQfk-8" style="edgeStyle=orthogonalEdgeStyle;rounded=0;orthogonalLoop=1;jettySize=auto;html=1;entryX=0.5;entryY=0;entryDx=0;entryDy=0;strokeColor=#2D7600;strokeWidth=6;" parent="1" source="vC42W1dHfUrLGCSOYuyR-48" target="W5YhJnQ8mdu7sLbRSp4b-3" edge="1">
          <mxGeometry relative="1" as="geometry">
            <Array as="points">
              <mxPoint x="1710" y="4790" />
              <mxPoint x="1710" y="5070" />
              <mxPoint x="510" y="5070" />
              <mxPoint x="510" y="5100" />
              <mxPoint x="232" y="5100" />
            </Array>
          </mxGeometry>
        </mxCell>
        <mxCell id="K_bjfXk6rJVCR5t5mQfk-11" style="edgeStyle=orthogonalEdgeStyle;rounded=0;orthogonalLoop=1;jettySize=auto;html=1;strokeColor=#2D7600;strokeWidth=6;" parent="1" source="W5YhJnQ8mdu7sLbRSp4b-2" target="9Dte4MXfXeRgDscpDeYK-14" edge="1">
          <mxGeometry relative="1" as="geometry">
            <Array as="points">
              <mxPoint x="87" y="5230" />
              <mxPoint x="520" y="5230" />
            </Array>
          </mxGeometry>
        </mxCell>
        <mxCell id="K_bjfXk6rJVCR5t5mQfk-27" style="edgeStyle=orthogonalEdgeStyle;rounded=0;orthogonalLoop=1;jettySize=auto;html=1;entryX=0;entryY=0.5;entryDx=0;entryDy=0;fillColor=#a20025;strokeColor=#FF0000;strokeWidth=6;" parent="1" source="HUb-4d5OrKzfbSTe2eDc-17" target="WOc30SIgsXHmv4fvjYI6-1" edge="1">
          <mxGeometry relative="1" as="geometry">
            <Array as="points">
              <mxPoint x="-90" y="4200" />
              <mxPoint x="-90" y="3600" />
              <mxPoint x="-2540" y="3600" />
              <mxPoint x="-2540" y="3479" />
            </Array>
          </mxGeometry>
        </mxCell>
        <mxCell id="K_bjfXk6rJVCR5t5mQfk-28" value="Supplemental Monitoring 12V" style="edgeLabel;html=1;align=center;verticalAlign=middle;resizable=0;points=[];" parent="K_bjfXk6rJVCR5t5mQfk-27" vertex="1" connectable="0">
          <mxGeometry x="0.1385" y="-4" relative="1" as="geometry">
            <mxPoint x="1" as="offset" />
          </mxGeometry>
        </mxCell>
        <mxCell id="iG1PrlRBNc7e2a4FFbMn-1" value="&lt;font style=&quot;font-size: 40px;&quot;&gt;Raspberry Pi 3B&lt;br&gt;89 mm x 55 mm&lt;br&gt;&lt;/font&gt;" style="rounded=1;whiteSpace=wrap;html=1;strokeWidth=6;" parent="1" vertex="1">
          <mxGeometry x="-1130" y="1770" width="600" height="310" as="geometry" />
        </mxCell>
        <mxCell id="iG1PrlRBNc7e2a4FFbMn-2" value="&lt;font style=&quot;font-size: 40px;&quot;&gt;GPS/Imu Shield&lt;br&gt;85 mm x 57 mm&lt;br&gt;&lt;/font&gt;" style="rounded=1;whiteSpace=wrap;html=1;strokeWidth=6;" parent="1" vertex="1">
          <mxGeometry x="-1150" y="1460" width="690" height="310" as="geometry" />
        </mxCell>
        <mxCell id="iG1PrlRBNc7e2a4FFbMn-3" value="&lt;font style=&quot;font-size: 40px;&quot;&gt;Can Shield&lt;br&gt;65 mm x 30 mm&lt;br&gt;&lt;/font&gt;" style="rounded=1;whiteSpace=wrap;html=1;strokeWidth=6;" parent="1" vertex="1">
          <mxGeometry x="-1031" y="1780" width="402" height="90" as="geometry" />
        </mxCell>
        <mxCell id="iG1PrlRBNc7e2a4FFbMn-4" value="&lt;font style=&quot;font-size: 40px;&quot;&gt;Buck Converter&lt;br&gt;27 mm x 63 mm&lt;br&gt;&lt;/font&gt;" style="rounded=1;whiteSpace=wrap;html=1;strokeWidth=6;" parent="1" vertex="1">
          <mxGeometry x="-510" y="1805" width="300" height="240" as="geometry" />
        </mxCell>
        <mxCell id="iG1PrlRBNc7e2a4FFbMn-9" value="&lt;font style=&quot;font-size: 60px;&quot;&gt;Backup Sunlight&lt;/font&gt;" style="text;html=1;strokeColor=none;fillColor=none;align=center;verticalAlign=middle;whiteSpace=wrap;rounded=0;" parent="1" vertex="1">
          <mxGeometry x="-1160" y="1310" width="40" height="30" as="geometry" />
        </mxCell>
        <mxCell id="iG1PrlRBNc7e2a4FFbMn-10" value="&lt;ul&gt;&lt;li&gt;&lt;span style=&quot;font-size: 46px;&quot;&gt;&lt;b&gt;Would replace Telemetry board&lt;/b&gt;&lt;/span&gt;&lt;/li&gt;&lt;/ul&gt;" style="text;html=1;strokeColor=none;fillColor=none;spacing=5;spacingTop=-20;whiteSpace=wrap;overflow=hidden;rounded=0;" parent="1" vertex="1">
          <mxGeometry x="-140" y="1430" width="290" height="230" as="geometry" />
        </mxCell>
      </root>
    </mxGraphModel>
  </diagram>
</mxfile>
